<svg width="123" height="47" viewBox="0 0 123 47" fill="none" xmlns="http://www.w3.org/2000/svg">
<g filter="url(#filter0_d_426_1796)">
<rect width="123" height="46" rx="5" fill="white"/>
<path d="M61.7378 31.415C65.6318 31.415 67.9756 27.8628 67.9756 22.1987V22.1743C67.9756 16.5103 65.6318 12.9702 61.7378 12.9702C57.8438 12.9702 55.5244 16.5103 55.5244 22.1743V22.1987C55.5244 27.8628 57.8438 31.415 61.7378 31.415ZM61.7378 29.4985C59.2109 29.4985 57.7339 26.6909 57.7339 22.1987V22.1743C57.7339 17.6821 59.2109 14.8989 61.7378 14.8989C64.2646 14.8989 65.7661 17.6821 65.7661 22.1743V22.1987C65.7661 26.6909 64.2646 29.4985 61.7378 29.4985Z" fill="black"/>
</g>
<defs>
<filter id="filter0_d_426_1796" x="0" y="0" width="123" height="47" filterUnits="userSpaceOnUse" color-interpolation-filters="sRGB">
<feFlood flood-opacity="0" result="BackgroundImageFix"/>
<feColorMatrix in="SourceAlpha" type="matrix" values="0 0 0 0 0 0 0 0 0 0 0 0 0 0 0 0 0 0 127 0" result="hardAlpha"/>
<feOffset dy="1"/>
<feColorMatrix type="matrix" values="0 0 0 0 0 0 0 0 0 0 0 0 0 0 0 0 0 0 0.35 0"/>
<feBlend mode="normal" in2="BackgroundImageFix" result="effect1_dropShadow_426_1796"/>
<feBlend mode="normal" in="SourceGraphic" in2="effect1_dropShadow_426_1796" result="shape"/>
</filter>
</defs>
</svg>
