<svg width="123" height="47" viewBox="0 0 123 47" fill="none" xmlns="http://www.w3.org/2000/svg">
<g filter="url(#filter0_d_426_1803)">
<rect width="123" height="46" rx="5" fill="white"/>
</g>
<path d="M48.4666 39H50.0145L50.5369 37.291H53.0223L53.5447 39H55.0975L52.6463 31.9541H50.9129L48.4666 39ZM51.7381 33.3604H51.826L52.6854 36.1875H50.8738L51.7381 33.3604ZM57.9938 39H61.1578C62.6617 39 63.5943 38.2236 63.5943 36.9883V36.9785C63.5943 36.0752 62.9156 35.377 61.983 35.3037V35.2158C62.7057 35.1084 63.2574 34.459 63.2574 33.7168V33.707C63.2574 32.623 62.442 31.9541 61.0748 31.9541H57.9938V39ZM60.6988 33.0479C61.402 33.0479 61.8072 33.3896 61.8072 33.9609V33.9707C61.8072 34.5518 61.3727 34.8838 60.5768 34.8838H59.4684V33.0479H60.6988ZM60.7477 35.8555C61.6168 35.8555 62.0904 36.207 62.0904 36.8613V36.8711C62.0904 37.54 61.6314 37.9014 60.7818 37.9014H59.4684V35.8555H60.7477ZM69.6205 39.1807C71.3197 39.1807 72.5258 38.1748 72.6771 36.7002L72.682 36.6465H71.2465L71.2367 36.6855C71.0805 37.4375 70.4701 37.9307 69.6254 37.9307C68.5121 37.9307 67.8236 36.9932 67.8236 35.4795V35.4697C67.8236 33.9561 68.5121 33.0234 69.6205 33.0234C70.4604 33.0234 71.0902 33.5605 71.2416 34.3516V34.3857H72.6771V34.3271C72.5404 32.8379 71.2904 31.7734 69.6205 31.7734C67.5746 31.7734 66.3148 33.1846 66.3148 35.4697V35.4795C66.3148 37.7646 67.5795 39.1807 69.6205 39.1807Z" fill="black"/>
<path d="M56.6714 24H68.0728V22.0225H59.7231V21.8271L63.7271 17.689C66.9131 14.4053 67.7798 12.9404 67.7798 10.9263V10.9019C67.7798 8.05762 65.4238 5.97021 62.3477 5.97021C58.9785 5.97021 56.5615 8.21631 56.5493 11.3413L56.5737 11.3535L58.6733 11.3657L58.6855 11.3413C58.6855 9.26611 60.0894 7.88672 62.2012 7.88672C64.2764 7.88672 65.5337 9.27832 65.5337 11.1338V11.1582C65.5337 12.6963 64.8745 13.6118 62.6284 16.041L56.6714 22.4863V24Z" fill="black"/>
<defs>
<filter id="filter0_d_426_1803" x="0" y="0" width="123" height="47" filterUnits="userSpaceOnUse" color-interpolation-filters="sRGB">
<feFlood flood-opacity="0" result="BackgroundImageFix"/>
<feColorMatrix in="SourceAlpha" type="matrix" values="0 0 0 0 0 0 0 0 0 0 0 0 0 0 0 0 0 0 127 0" result="hardAlpha"/>
<feOffset dy="1"/>
<feColorMatrix type="matrix" values="0 0 0 0 0 0 0 0 0 0 0 0 0 0 0 0 0 0 0.3 0"/>
<feBlend mode="normal" in2="BackgroundImageFix" result="effect1_dropShadow_426_1803"/>
<feBlend mode="normal" in="SourceGraphic" in2="effect1_dropShadow_426_1803" result="shape"/>
</filter>
</defs>
</svg>
