<svg width="123" height="47" viewBox="0 0 123 47" fill="none" xmlns="http://www.w3.org/2000/svg">
<g filter="url(#filter0_d_426_1807)">
<rect width="123" height="46" rx="5" fill="white"/>
</g>
<path d="M49.9656 39H52.7391C54.8484 39 56.0447 37.7109 56.0447 35.4355V35.4258C56.0447 33.2188 54.8338 31.9541 52.7391 31.9541H49.9656V39ZM51.4402 37.7842V33.1699H52.5047C53.784 33.1699 54.5408 34 54.5408 35.4502V35.46C54.5408 36.9639 53.8084 37.7842 52.5047 37.7842H51.4402ZM59.1461 39H63.8141V37.7842H60.6207V36.002H63.6334V34.8691H60.6207V33.1699H63.8141V31.9541H59.1461V39ZM67.0668 39H68.5414V36.2266H71.4076V35.0596H68.5414V33.1699H71.6811V31.9541H67.0668V39Z" fill="black"/>
<path d="M61.8721 24.293C65.3999 24.293 67.9878 22.1201 67.9878 19.1782V19.1538C67.9878 16.6514 66.2422 15.0522 63.6787 14.8325V14.7837C65.876 14.3198 67.4141 12.8306 67.4141 10.6577V10.6333C67.4141 7.95996 65.2046 6.09229 61.8477 6.09229C58.5518 6.09229 56.2812 8.00879 56.0005 10.8774L55.9883 10.9995H58.1001L58.1123 10.8774C58.2954 9.09521 59.7725 7.99658 61.8477 7.99658C63.9961 7.99658 65.2046 9.05859 65.2046 10.9019V10.9263C65.2046 12.6841 63.7397 13.978 61.6401 13.978H59.5283V15.8335H61.7378C64.2036 15.8335 65.7539 17.042 65.7539 19.2026V19.2271C65.7539 21.0947 64.1792 22.3887 61.8721 22.3887C59.5283 22.3887 57.9292 21.1924 57.7583 19.459L57.7461 19.3369H55.6343L55.6465 19.4834C55.8784 22.2666 58.2344 24.293 61.8721 24.293Z" fill="black"/>
<defs>
<filter id="filter0_d_426_1807" x="0" y="0" width="123" height="47" filterUnits="userSpaceOnUse" color-interpolation-filters="sRGB">
<feFlood flood-opacity="0" result="BackgroundImageFix"/>
<feColorMatrix in="SourceAlpha" type="matrix" values="0 0 0 0 0 0 0 0 0 0 0 0 0 0 0 0 0 0 127 0" result="hardAlpha"/>
<feOffset dy="1"/>
<feColorMatrix type="matrix" values="0 0 0 0 0 0 0 0 0 0 0 0 0 0 0 0 0 0 0.3 0"/>
<feBlend mode="normal" in2="BackgroundImageFix" result="effect1_dropShadow_426_1807"/>
<feBlend mode="normal" in="SourceGraphic" in2="effect1_dropShadow_426_1807" result="shape"/>
</filter>
</defs>
</svg>
