<svg width="123" height="48" viewBox="0 0 123 48" fill="none" xmlns="http://www.w3.org/2000/svg">
<g filter="url(#filter0_d_426_1815)">
<rect width="123" height="47" rx="5" fill="white"/>
</g>
<path d="M52.1678 40.1807C53.6912 40.1807 54.575 39.3164 54.575 37.832V32.9541H53.1004V37.8223C53.1004 38.5303 52.7732 38.9062 52.1482 38.9062C51.5721 38.9062 51.2498 38.5254 51.2205 37.9834V37.9541H49.7898V37.9932C49.8289 39.3164 50.7127 40.1807 52.1678 40.1807ZM57.9889 40H59.4635V37.8467L60.1617 37.0068L62.2076 40H63.9752L61.2262 36.04L63.7945 32.9541H62.1539L59.5514 36.1182H59.4635V32.9541H57.9889V40ZM66.7885 40H71.3979V38.7842H68.2631V32.9541H66.7885V40Z" fill="black"/>
<path d="M62.2744 25.415C65.8511 25.415 68.4023 22.937 68.4023 19.3848V19.3604C68.4023 15.9546 66.022 13.4766 62.7139 13.4766C61.1147 13.4766 59.7354 14.1235 58.9541 15.3076H58.7588L59.3569 9.35059H67.4258V7.38525H57.6235L56.6958 17.5049H58.6001C58.8198 17.0898 59.1006 16.748 59.4058 16.4551C60.1626 15.7349 61.1636 15.3809 62.3354 15.3809C64.6182 15.3809 66.2539 17.0532 66.2539 19.397V19.4214C66.2539 21.8018 64.6426 23.4741 62.2988 23.4741C60.2358 23.4741 58.71 22.1313 58.5024 20.4468L58.4902 20.3491H56.3784L56.3906 20.4834C56.647 23.3032 58.9907 25.415 62.2744 25.415Z" fill="black"/>
<defs>
<filter id="filter0_d_426_1815" x="0" y="0" width="123" height="48" filterUnits="userSpaceOnUse" color-interpolation-filters="sRGB">
<feFlood flood-opacity="0" result="BackgroundImageFix"/>
<feColorMatrix in="SourceAlpha" type="matrix" values="0 0 0 0 0 0 0 0 0 0 0 0 0 0 0 0 0 0 127 0" result="hardAlpha"/>
<feOffset dy="1"/>
<feColorMatrix type="matrix" values="0 0 0 0 0 0 0 0 0 0 0 0 0 0 0 0 0 0 0.3 0"/>
<feBlend mode="normal" in2="BackgroundImageFix" result="effect1_dropShadow_426_1815"/>
<feBlend mode="normal" in="SourceGraphic" in2="effect1_dropShadow_426_1815" result="shape"/>
</filter>
</defs>
</svg>
