<svg width="123" height="48" viewBox="0 0 123 48" fill="none" xmlns="http://www.w3.org/2000/svg">
<g filter="url(#filter0_d_426_1819)">
<rect width="123" height="47" rx="5" fill="white"/>
</g>
<path d="M47.49 40H48.8035V35.2051H48.9012L50.7078 40H51.6307L53.4373 35.2051H53.535V40H54.8484V32.9541H53.159L51.2156 38.1104H51.1277L49.1795 32.9541H47.49V40ZM58.2623 40H59.6734V35.4932H59.7516L63.0133 40H64.234V32.9541H62.8229V37.4414H62.7447L59.4928 32.9541H58.2623V40ZM70.7289 40.1807C72.809 40.1807 74.1176 38.7549 74.1176 36.4795V36.4697C74.1176 34.1943 72.8041 32.7734 70.7289 32.7734C68.6537 32.7734 67.3354 34.1895 67.3354 36.4697V36.4795C67.3354 38.7549 68.6342 40.1807 70.7289 40.1807ZM70.7289 38.9307C69.5668 38.9307 68.8393 37.9688 68.8393 36.4795V36.4697C68.8393 34.9756 69.5814 34.0234 70.7289 34.0234C71.8715 34.0234 72.6137 34.9756 72.6137 36.4697V36.4795C72.6137 37.9688 71.8764 38.9307 70.7289 38.9307Z" fill="black"/>
<path d="M61.9819 25.415C65.5342 25.415 68.1465 22.8638 68.1465 19.3481V19.3237C68.1465 15.9424 65.6807 13.4277 62.3726 13.4277C59.9922 13.4277 58.332 14.7095 57.6851 16.1499H57.4531C57.502 12.2925 58.7837 8.93555 62.104 8.93555C63.8862 8.93555 65.1191 9.85107 65.6562 11.3281L65.7051 11.4624H67.9146L67.8779 11.3037C67.2798 8.70361 65.0825 6.97021 62.1284 6.97021C57.856 6.97021 55.3535 10.4858 55.3535 16.4917V16.5161C55.3535 23.1445 58.7593 25.415 61.9819 25.415ZM57.978 19.3237V19.3115C57.978 17.0166 59.7114 15.3442 61.9941 15.3442C64.2769 15.3442 65.937 17.0288 65.937 19.3726V19.397C65.937 21.6797 64.167 23.4741 61.9575 23.4741C59.7236 23.4741 57.978 21.6431 57.978 19.3237Z" fill="black"/>
<defs>
<filter id="filter0_d_426_1819" x="0" y="0" width="123" height="48" filterUnits="userSpaceOnUse" color-interpolation-filters="sRGB">
<feFlood flood-opacity="0" result="BackgroundImageFix"/>
<feColorMatrix in="SourceAlpha" type="matrix" values="0 0 0 0 0 0 0 0 0 0 0 0 0 0 0 0 0 0 127 0" result="hardAlpha"/>
<feOffset dy="1"/>
<feColorMatrix type="matrix" values="0 0 0 0 0 0 0 0 0 0 0 0 0 0 0 0 0 0 0.3 0"/>
<feBlend mode="normal" in2="BackgroundImageFix" result="effect1_dropShadow_426_1819"/>
<feBlend mode="normal" in="SourceGraphic" in2="effect1_dropShadow_426_1819" result="shape"/>
</filter>
</defs>
</svg>
