<svg width="123" height="48" viewBox="0 0 123 48" fill="none" xmlns="http://www.w3.org/2000/svg">
<g filter="url(#filter0_d_426_1823)">
<rect width="123" height="47" rx="5" fill="white"/>
</g>
<path d="M44.7992 40H46.2738V37.7783H47.7045C49.1889 37.7783 50.1801 36.8213 50.1801 35.3711V35.3613C50.1801 33.9111 49.1889 32.9541 47.7045 32.9541H44.7992V40ZM47.3432 34.1211C48.1879 34.1211 48.6859 34.5654 48.6859 35.3662V35.376C48.6859 36.1768 48.1879 36.626 47.3432 36.626H46.2738V34.1211H47.3432ZM56.3186 40.1807C56.7727 40.1807 57.1926 40.1123 57.5686 39.9805L58.1057 40.6982H59.4777L58.5305 39.4336C59.2824 38.7988 59.7072 37.7783 59.7072 36.4795V36.4697C59.7072 34.1943 58.3937 32.7734 56.3186 32.7734C54.2434 32.7734 52.925 34.1895 52.925 36.4697V36.4795C52.925 38.7549 54.2238 40.1807 56.3186 40.1807ZM56.3186 38.9307C55.1564 38.9307 54.4289 37.9688 54.4289 36.4795V36.4697C54.4289 34.9756 55.1711 34.0234 56.3186 34.0234C57.4611 34.0234 58.2033 34.9756 58.2033 36.4697V36.4795C58.2033 37.2412 58.008 37.8613 57.6662 38.291L57.2121 37.6807H55.84L56.7434 38.8818C56.6066 38.916 56.465 38.9307 56.3186 38.9307ZM62.8086 40H64.2832V37.4219H65.4893L66.8027 40H68.4727L66.9883 37.2021C67.7939 36.8848 68.2627 36.1084 68.2627 35.2051V35.1953C68.2627 33.8086 67.3447 32.9541 65.7432 32.9541H62.8086V40ZM64.2832 36.3477V34.1064H65.5625C66.2998 34.1064 66.7539 34.5459 66.7539 35.2246V35.2344C66.7539 35.9277 66.3193 36.3477 65.582 36.3477H64.2832ZM73.9715 40.1807C75.7293 40.1807 76.8133 39.2969 76.8133 37.9004V37.8955C76.8133 36.7969 76.1639 36.2012 74.6746 35.8936L73.9275 35.7422C73.0975 35.5713 72.7557 35.2979 72.7557 34.8389V34.834C72.7557 34.3066 73.2391 33.9746 73.9666 33.9697C74.7088 33.9697 75.1971 34.3213 75.2801 34.8242L75.2898 34.8828H76.6766L76.6717 34.8193C76.5789 33.6426 75.6121 32.7734 73.9666 32.7734C72.4041 32.7734 71.2811 33.6377 71.2811 34.9463V34.9512C71.2811 36.0205 71.9109 36.7041 73.3758 37.002L74.118 37.1533C74.992 37.334 75.3387 37.5928 75.3387 38.0566V38.0615C75.3387 38.6035 74.7967 38.9795 74.0105 38.9795C73.1853 38.9795 72.6141 38.623 72.5603 38.0957L72.5555 38.0469H71.1346L71.1395 38.125C71.2225 39.375 72.2869 40.1807 73.9715 40.1807Z" fill="black"/>
<path d="M57.3311 25H59.6382L67.4751 9.42383V7.38525H55.8174V9.35059H65.2412V9.52148L57.3311 25Z" fill="black"/>
<defs>
<filter id="filter0_d_426_1823" x="0" y="0" width="123" height="48" filterUnits="userSpaceOnUse" color-interpolation-filters="sRGB">
<feFlood flood-opacity="0" result="BackgroundImageFix"/>
<feColorMatrix in="SourceAlpha" type="matrix" values="0 0 0 0 0 0 0 0 0 0 0 0 0 0 0 0 0 0 127 0" result="hardAlpha"/>
<feOffset dy="1"/>
<feColorMatrix type="matrix" values="0 0 0 0 0 0 0 0 0 0 0 0 0 0 0 0 0 0 0.3 0"/>
<feBlend mode="normal" in2="BackgroundImageFix" result="effect1_dropShadow_426_1823"/>
<feBlend mode="normal" in="SourceGraphic" in2="effect1_dropShadow_426_1823" result="shape"/>
</filter>
</defs>
</svg>
