<svg width="123" height="48" viewBox="0 0 123 48" fill="none" xmlns="http://www.w3.org/2000/svg">
<g filter="url(#filter0_d_426_1827)">
<rect width="123" height="47" rx="5" fill="white"/>
</g>
<path d="M50.8006 40H52.2752V34.1699H54.3895V32.9541H48.6863V34.1699H50.8006V40ZM60.3424 40.1807C62.1588 40.1807 63.2916 39.1309 63.2916 37.5684V32.9541H61.817V37.4365C61.817 38.3496 61.2896 38.9307 60.3424 38.9307C59.3951 38.9307 58.8629 38.3496 58.8629 37.4365V32.9541H57.3883V37.5684C57.3883 39.1357 58.5357 40.1807 60.3424 40.1807ZM68.5463 40H70.3627L72.7113 32.9541H71.0512L69.4984 38.3594H69.4105L67.8529 32.9541H66.1977L68.5463 40Z" fill="black"/>
<path d="M61.75 25.293C65.4854 25.293 68.1465 23.1934 68.1465 20.2393V20.2148C68.1465 18.042 66.6206 16.2354 64.3623 15.7104V15.6616C66.291 15.0635 67.5117 13.5986 67.5117 11.7432V11.7188C67.5117 9.05762 65.0825 7.09229 61.75 7.09229C58.4175 7.09229 55.9883 9.05762 55.9883 11.7188V11.7432C55.9883 13.5986 57.209 15.0635 59.1377 15.6616V15.7104C56.8794 16.2354 55.3535 18.042 55.3535 20.2148V20.2393C55.3535 23.1934 58.0146 25.293 61.75 25.293ZM61.75 14.8438C59.626 14.8438 58.1733 13.6353 58.1733 11.9263V11.9019C58.1733 10.1929 59.626 8.98438 61.75 8.98438C63.874 8.98438 65.3267 10.1929 65.3267 11.9019V11.9263C65.3267 13.6353 63.874 14.8438 61.75 14.8438ZM61.75 23.3765C59.3208 23.3765 57.5874 22.0093 57.5874 20.105V20.0806C57.5874 18.1519 59.3086 16.7725 61.75 16.7725C64.1914 16.7725 65.9126 18.1519 65.9126 20.0806V20.105C65.9126 22.0093 64.1792 23.3765 61.75 23.3765Z" fill="black"/>
<defs>
<filter id="filter0_d_426_1827" x="0" y="0" width="123" height="48" filterUnits="userSpaceOnUse" color-interpolation-filters="sRGB">
<feFlood flood-opacity="0" result="BackgroundImageFix"/>
<feColorMatrix in="SourceAlpha" type="matrix" values="0 0 0 0 0 0 0 0 0 0 0 0 0 0 0 0 0 0 127 0" result="hardAlpha"/>
<feOffset dy="1"/>
<feColorMatrix type="matrix" values="0 0 0 0 0 0 0 0 0 0 0 0 0 0 0 0 0 0 0.3 0"/>
<feBlend mode="normal" in2="BackgroundImageFix" result="effect1_dropShadow_426_1827"/>
<feBlend mode="normal" in="SourceGraphic" in2="effect1_dropShadow_426_1827" result="shape"/>
</filter>
</defs>
</svg>
