<svg width="123" height="48" viewBox="0 0 123 48" fill="none" xmlns="http://www.w3.org/2000/svg">
<g filter="url(#filter0_d_426_1831)">
<rect width="123" height="47" rx="5" fill="white"/>
</g>
<path d="M44.7797 40H46.1713L47.4896 35.2539H47.5678L48.9008 40H50.2826L52.1527 32.9541H50.6293L49.5404 37.9883H49.4623L48.1537 32.9541H46.9086L45.6244 37.9883H45.5463L44.4477 32.9541H42.9145L44.7797 40ZM54.7121 40H56.3039L57.842 37.5293H57.8908L59.4338 40H61.1135L58.8381 36.4795V36.46L61.1477 32.9541H59.4973L58.0129 35.4932H57.9543L56.4602 32.9541H54.7219L56.9484 36.4355V36.4502L54.7121 40ZM66.0801 40H67.5547V37.3682L70.0107 32.9541H68.4141L66.8662 35.918H66.7783L65.2256 32.9541H63.6289L66.0801 37.3682V40ZM72.7166 40H78.1561V38.7842H74.5232V38.6963L78.0584 33.9111V32.9541H72.7996V34.1699H76.2615V34.2578L72.7166 39.0381V40Z" fill="black"/>
<path d="M61.5181 6.97021C57.9658 6.97021 55.3535 9.52148 55.3535 13.0371V13.0615C55.3535 16.4429 57.8193 18.9575 61.1274 18.9575C63.5078 18.9575 65.168 17.6758 65.8149 16.2354H66.0469C65.998 20.0928 64.7163 23.4497 61.396 23.4497C59.6138 23.4497 58.3809 22.5342 57.8438 21.0571L57.7949 20.9229H55.5854L55.6221 21.0815C56.2202 23.6816 58.4175 25.415 61.3716 25.415C65.644 25.415 68.1465 21.8994 68.1465 15.8936V15.8691C68.1465 9.24072 64.7407 6.97021 61.5181 6.97021ZM61.5059 17.041C59.2231 17.041 57.563 15.3564 57.563 13.0127V12.9883C57.563 10.7056 59.333 8.91113 61.5425 8.91113C63.7764 8.91113 65.522 10.7422 65.522 13.0615V13.0737C65.522 15.3687 63.7886 17.041 61.5059 17.041Z" fill="black"/>
<defs>
<filter id="filter0_d_426_1831" x="0" y="0" width="123" height="48" filterUnits="userSpaceOnUse" color-interpolation-filters="sRGB">
<feFlood flood-opacity="0" result="BackgroundImageFix"/>
<feColorMatrix in="SourceAlpha" type="matrix" values="0 0 0 0 0 0 0 0 0 0 0 0 0 0 0 0 0 0 127 0" result="hardAlpha"/>
<feOffset dy="1"/>
<feColorMatrix type="matrix" values="0 0 0 0 0 0 0 0 0 0 0 0 0 0 0 0 0 0 0.3 0"/>
<feBlend mode="normal" in2="BackgroundImageFix" result="effect1_dropShadow_426_1831"/>
<feBlend mode="normal" in="SourceGraphic" in2="effect1_dropShadow_426_1831" result="shape"/>
</filter>
</defs>
</svg>
