<svg width="27" height="13" viewBox="0 0 27 13" fill="none" xmlns="http://www.w3.org/2000/svg">
<path d="M1.9231 3.20515C1.9231 2.49709 2.49709 1.9231 3.20515 1.9231H20.8334C21.5414 1.9231 22.1154 2.49709 22.1154 3.20515V9.29489C22.1154 10.0029 21.5414 10.5769 20.8334 10.5769H3.20515C2.49709 10.5769 1.9231 10.0029 1.9231 9.29489V3.20515Z" fill="black"/>
<path opacity="0.4" d="M20.833 0C22.6031 0 24.0381 1.43496 24.0381 3.20508V9.29492C24.0381 11.065 22.6031 12.5 20.833 12.5H3.20508C1.43497 12.5 2.68974e-05 11.065 0 9.29492V3.20508C2.69574e-05 1.43497 1.43497 2.72881e-05 3.20508 0H20.833ZM3.20508 0.961914C1.96602 0.961941 0.961941 1.96602 0.961914 3.20508V9.29492C0.961941 10.534 1.96602 11.5381 3.20508 11.5381H20.833C22.0721 11.5381 23.0771 10.534 23.0771 9.29492V3.20508C23.0771 1.966 22.0721 0.961914 20.833 0.961914H3.20508ZM25 4.22559C25.9185 4.44288 26.6025 5.26513 26.6025 6.25C26.6025 7.23487 25.9185 8.05712 25 8.27441V4.22559Z" fill="black"/>
</svg>
