<svg width="40" height="40" viewBox="0 0 40 40" fill="none" xmlns="http://www.w3.org/2000/svg">
<g clip-path="url(#clip0_563_7496)">
<path d="M17.5465 19.789H24.7725C25.1415 19.789 25.4795 19.58 25.6435 19.248L33.2445 3.903C33.5645 3.257 33.0945 2.5 32.3735 2.5H25.1475C24.7785 2.5 24.4405 2.709 24.2765 3.041L16.6755 18.386C16.3555 19.032 16.8255 19.789 17.5465 19.789Z" fill="#FF9000"/>
<path d="M22.4526 19.789H15.2266C14.8576 19.789 14.5196 19.58 14.3556 19.248L6.75458 3.903C6.43458 3.257 6.90458 2.5 7.62558 2.5H14.8516C15.2206 2.5 15.5586 2.709 15.7226 3.041L23.3236 18.386C23.6436 19.032 23.1736 19.789 22.4526 19.789Z" fill="#FFAD00"/>
<path d="M19.9999 37.5C27.247 37.5 33.1219 31.6251 33.1219 24.378C33.1219 17.1309 27.247 11.256 19.9999 11.256C12.7528 11.256 6.87793 17.1309 6.87793 24.378C6.87793 31.6251 12.7528 37.5 19.9999 37.5Z" fill="#9C5522"/>
<path d="M19.9999 34.875C25.7973 34.875 30.4969 30.1753 30.4969 24.378C30.4969 18.5807 25.7973 13.881 19.9999 13.881C14.2026 13.881 9.50293 18.5807 9.50293 24.378C9.50293 30.1753 14.2026 34.875 19.9999 34.875Z" fill="#CF712D"/>
<path d="M20.1426 28.15C21.2936 28.15 21.9006 27.528 21.9166 26.641C21.9316 25.63 21.4346 25.101 20.0346 25.101H18.8056V22.985H19.9876C21.0146 22.985 21.5906 22.409 21.5906 21.569C21.5906 20.76 21.0766 20.184 20.0966 20.184C19.1166 20.184 18.4786 20.807 18.3856 21.632H15.6946C15.8496 19.593 17.7476 18.069 20.0966 18.069C22.4456 18.069 24.2036 19.361 24.2036 21.305C24.2036 22.597 23.4566 23.654 22.0096 23.934C23.5966 24.137 24.5296 25.21 24.5296 26.641C24.5296 28.773 22.6936 30.266 20.1426 30.266C17.7616 30.266 15.8016 28.851 15.5996 26.704H18.2916C18.4936 27.575 19.1626 28.15 20.1426 28.15Z" fill="white"/>
</g>
<defs>
<clipPath id="clip0_563_7496">
<rect width="40" height="40" fill="white"/>
</clipPath>
</defs>
</svg>
