<svg width="16" height="17" viewBox="0 0 16 17" fill="none" xmlns="http://www.w3.org/2000/svg">
<g clip-path="url(#clip0_538_4193)">
<path d="M6.05967 6.49998C6.21641 6.05442 6.52578 5.67872 6.93298 5.4394C7.34018 5.20009 7.81894 5.1126 8.28446 5.19245C8.74998 5.2723 9.17222 5.51433 9.47639 5.87566C9.78057 6.237 9.94704 6.69433 9.94634 7.16665C9.94634 8.49998 7.94634 9.16665 7.94634 9.16665M7.99967 11.8333H8.00634M14.6663 8.49998C14.6663 12.1819 11.6816 15.1666 7.99967 15.1666C4.31778 15.1666 1.33301 12.1819 1.33301 8.49998C1.33301 4.81808 4.31778 1.83331 7.99967 1.83331C11.6816 1.83331 14.6663 4.81808 14.6663 8.49998Z" stroke="#D9D9D9" stroke-width="2" stroke-linecap="round" stroke-linejoin="round"/>
</g>
<defs>
<clipPath id="clip0_538_4193">
<rect width="16" height="16" fill="white" transform="translate(0 0.5)"/>
</clipPath>
</defs>
</svg>
