<svg width="25" height="24" viewBox="0 0 25 24" fill="none" xmlns="http://www.w3.org/2000/svg">
<path d="M18.59 10.37C19.5353 10.7224 20.3765 11.3075 21.0358 12.0712C21.695 12.8349 22.1511 13.7524 22.3617 14.7391C22.5724 15.7257 22.5309 16.7495 22.241 17.7158C21.9512 18.6822 21.4223 19.5598 20.7034 20.2676C19.9845 20.9754 19.0987 21.4905 18.128 21.7652C17.1572 22.04 16.1329 22.0655 15.1497 21.8395C14.1665 21.6134 13.2561 21.1431 12.5028 20.472C11.7495 19.8009 11.1776 18.9507 10.84 18M7.5 6H8.5V10M17.21 13.88L17.91 14.59L15.09 17.41M14.5 8C14.5 11.3137 11.8137 14 8.5 14C5.18629 14 2.5 11.3137 2.5 8C2.5 4.68629 5.18629 2 8.5 2C11.8137 2 14.5 4.68629 14.5 8Z" stroke="#FFC400" stroke-width="2" stroke-linecap="round" stroke-linejoin="round"/>
</svg>
