<svg width="56" height="56" viewBox="0 0 56 56" fill="none" xmlns="http://www.w3.org/2000/svg">
<g clip-path="url(#clip0_47_1247)">
<path d="M44.4808 51.674L43.7976 48.8964C43.5316 47.8156 43.1816 46.7474 42.6272 45.7828C41.2776 43.4308 39.1468 41.5954 36.5722 40.6168L31.2256 38.5854C30.5564 38.3306 29.869 38.143 29.176 37.9974V40.25C29.176 41.79 27.93 43.036 26.39 43.036C24.85 43.036 23.604 41.79 23.604 40.25V37.9932C22.904 38.1388 22.2096 38.3292 21.5334 38.5868L16.1868 40.6182C14.2562 41.3518 12.5748 42.5684 11.2854 44.1224C10.0576 45.6036 9.31559 47.4264 8.92499 49.3108L8.43079 51.6992C8.34539 52.1122 8.66039 52.5014 9.08319 52.5014H43.834C44.2666 52.5014 44.5844 52.094 44.4808 51.674Z" fill="#C4C4C4"/>
<path d="M15.456 26.894C15.246 25.676 15.54 24.416 16.282 23.422C16.8 22.75 17.248 22.414 17.248 22.414C18.2266 21.5516 18.9574 20.5702 19.509 19.607C17.1192 19.9122 14.9352 20.3742 13.055 20.9664C11.5402 27.2874 12.1618 34.1628 12.1618 34.1628C12.1618 34.1628 12.8898 36.9166 23.604 37.3324V35.896C19.446 34.832 16.226 31.304 15.456 26.894Z" fill="#333333"/>
<path d="M30.6321 20.468C35.3221 21.154 37.5341 24.234 36.9041 27.832C35.8961 31.724 32.9281 34.79 29.1761 35.84V37.3394C35.4173 37.1028 38.3419 36.0766 39.6957 35.2534C40.4013 34.8236 40.8451 34.0676 40.8647 33.2402C40.9753 28.511 40.2137 24.2312 39.3779 21.0224C35.9549 19.9192 31.4903 19.2416 26.5917 19.1996C27.7719 19.7666 29.1075 20.2426 30.6307 20.4666L30.6321 20.468Z" fill="#333333"/>
<path d="M26.39 43.036C27.93 43.036 29.176 41.79 29.176 40.25V35.84C32.928 34.79 35.896 31.724 36.904 27.832C37.534 24.234 35.322 21.154 30.632 20.468C29.1102 20.2426 27.7732 19.768 26.593 19.201C26.4348 19.201 26.2808 19.1926 26.1212 19.1926C23.8014 19.1926 21.581 19.3424 19.509 19.607C18.956 20.5702 18.2266 21.5516 17.248 22.414C17.248 22.414 16.8 22.75 16.282 23.422C15.54 24.416 15.246 25.676 15.456 26.894C16.226 31.304 19.446 34.832 23.604 35.896V40.25C23.604 41.79 24.85 43.036 26.39 43.036Z" fill="#FFCCA8"/>
<path d="M22.9685 26.04C23.6442 26.04 24.1921 25.3825 24.1921 24.5714C24.1921 23.7603 23.6442 23.1028 22.9685 23.1028C22.2927 23.1028 21.7449 23.7603 21.7449 24.5714C21.7449 25.3825 22.2927 26.04 22.9685 26.04Z" fill="black"/>
<path d="M29.4295 26.04C30.1053 26.04 30.6531 25.3825 30.6531 24.5714C30.6531 23.7603 30.1053 23.1028 29.4295 23.1028C28.7538 23.1028 28.2059 23.7603 28.2059 24.5714C28.2059 25.3825 28.7538 26.04 29.4295 26.04Z" fill="black"/>
<path d="M27.7229 31.024C27.9973 31.024 28.1919 31.2872 28.1191 31.5518C27.8881 32.3946 27.1153 33.0148 26.1983 33.0148C25.2813 33.0148 24.5099 32.3946 24.2775 31.5518C24.2047 31.2872 24.3993 31.024 24.6737 31.024H27.7229Z" fill="#5C2F17"/>
<path d="M26.3942 40.8016C25.242 40.8016 24.2284 40.229 23.6068 39.3568V40.2528C23.6068 41.7914 24.8542 43.0402 26.3942 43.0402C27.9342 43.0402 29.1816 41.7928 29.1816 40.2528V39.3568C28.56 40.2276 27.5464 40.8016 26.3942 40.8016Z" fill="#4C6DB5"/>
<path d="M22.1591 46.053C22.6865 46.053 23.1139 45.6255 23.1139 45.0982C23.1139 44.5709 22.6865 44.1434 22.1591 44.1434C21.6318 44.1434 21.2043 44.5709 21.2043 45.0982C21.2043 45.6255 21.6318 46.053 22.1591 46.053Z" fill="#4C6DB5"/>
<path d="M30.8825 46.053C31.4099 46.053 31.8373 45.6255 31.8373 45.0982C31.8373 44.5709 31.4099 44.1434 30.8825 44.1434C30.3552 44.1434 29.9277 44.5709 29.9277 45.0982C29.9277 45.6255 30.3552 46.053 30.8825 46.053Z" fill="#4C6DB5"/>
<path d="M22.1591 51.5256C22.6865 51.5256 23.1139 51.0981 23.1139 50.5708C23.1139 50.0435 22.6865 49.616 22.1591 49.616C21.6318 49.616 21.2043 50.0435 21.2043 50.5708C21.2043 51.0981 21.6318 51.5256 22.1591 51.5256Z" fill="#4C6DB5"/>
<path d="M30.8825 51.5256C31.4099 51.5256 31.8373 51.0981 31.8373 50.5708C31.8373 50.0435 31.4099 49.616 30.8825 49.616C30.3552 49.616 29.9277 50.0435 29.9277 50.5708C29.9277 51.0981 30.3552 51.5256 30.8825 51.5256Z" fill="#4C6DB5"/>
<path d="M43.526 12.6784C43.526 10.2802 41.5814 8.337 39.1846 8.337C39.0824 8.337 38.9872 8.3608 38.8864 8.3664C37.856 6.7802 35.9114 5.6966 33.6504 5.6966C32.949 5.6966 32.2854 5.8198 31.6582 6.0102C30.5508 4.4954 28.7742 3.5 26.754 3.5C24.549 3.5 22.6366 4.683 21.5684 6.4372C20.6696 5.978 19.6322 5.6966 18.5108 5.6966C16.2582 5.6966 14.3164 6.7746 13.2846 8.3524C13.2342 8.351 13.1866 8.337 13.1362 8.337C10.738 8.337 8.7948 10.2816 8.7948 12.6784C8.7948 14.917 10.4958 16.7384 12.6714 16.9736V20.951C12.6714 20.9846 12.6868 21.0126 12.7092 21.0308C12.6854 21.0126 12.6714 20.9846 12.6714 20.951V17.0086C16.2274 15.8326 20.9468 15.1158 26.124 15.1158C31.3012 15.1158 36.0192 15.8326 39.5752 17.0086V20.951V16.982C41.7886 16.7818 43.5274 14.9436 43.5274 12.6798L43.526 12.6784Z" fill="#E6E6E6"/>
<path d="M39.4492 21.0434C39.5122 21.0644 39.5738 21.0168 39.5738 20.9496C39.5738 21.0168 39.5136 21.063 39.4492 21.0434Z" fill="#E6E6E6"/>
<path d="M26.1212 15.1158C20.944 15.1158 16.226 15.8326 12.67 17.0086V20.951C12.67 20.9846 12.6854 21.0126 12.7078 21.0308C12.7302 21.049 12.7624 21.0546 12.7932 21.0448C12.8772 21.0182 12.9696 20.9944 13.055 20.9664C14.9352 20.3756 17.1192 19.9122 19.509 19.607C21.581 19.3424 23.8014 19.1926 26.1212 19.1926C26.2808 19.1926 26.4348 19.1996 26.593 19.201C31.4916 19.243 35.9562 19.9206 39.3792 21.0238C39.4016 21.0308 39.4268 21.0378 39.4492 21.0448C39.5122 21.0658 39.5738 21.0182 39.5738 20.951V17.0086C36.0178 15.8326 31.2984 15.1158 26.1212 15.1158Z" fill="#C4C4C4"/>
<path d="M45.6204 31.752C43.7234 30.7636 41.1838 31.584 39.6676 34.496C38.7058 36.3426 38.8794 38.4972 39.326 39.9266C39.5906 40.775 39.4366 41.7004 39.0068 42.4788L38.6302 43.1242L33.1576 52.4986H36.5638L40.4558 44.0748L40.852 43.218C41.251 42.4074 41.9622 41.8208 42.8036 41.4918C44.142 40.9682 45.885 39.935 46.7852 38.2074C48.3028 35.2954 47.5188 32.7404 45.6218 31.7506L45.6204 31.752Z" fill="#807057"/>
</g>
<defs>
<clipPath id="clip0_47_1247">
<rect width="56" height="56" fill="white"/>
</clipPath>
</defs>
</svg>
