<svg width="32" height="32" viewBox="0 0 32 32" fill="none" xmlns="http://www.w3.org/2000/svg">
<path d="M2.66675 16H29.3334M26.6667 16V26.6667C26.6667 27.3739 26.3858 28.0522 25.8857 28.5523C25.3856 29.0524 24.7073 29.3333 24.0001 29.3333H8.00008C7.29284 29.3333 6.61456 29.0524 6.11446 28.5523C5.61437 28.0522 5.33341 27.3739 5.33341 26.6667V16M5.33341 10.6667L26.6667 5.33333M11.8134 9.04L11.2134 6.62666C11.1274 6.28697 11.1093 5.93367 11.1599 5.58695C11.2106 5.24023 11.3291 4.9069 11.5086 4.60599C11.6882 4.30509 11.9253 4.04253 12.2063 3.83331C12.4874 3.62409 12.807 3.47231 13.1467 3.38666L15.7334 2.74666C16.074 2.66091 16.4282 2.64328 16.7756 2.69479C17.123 2.74629 17.4568 2.86592 17.7579 3.0468C18.0589 3.22769 18.3213 3.46626 18.5299 3.74881C18.7385 4.03137 18.8892 4.35236 18.9734 4.69333L19.5734 7.09333" stroke="#D9D9D9" stroke-width="2" stroke-linecap="round" stroke-linejoin="round"/>
</svg>
