<svg width="24" height="24" viewBox="0 0 24 24" fill="none" xmlns="http://www.w3.org/2000/svg">
<path d="M16.0002 17H20.0002M4.00015 13H8.00015M4.00015 16V13.62C4.00015 11.5 2.97015 10.5 3.00015 8C3.03015 5.28 4.49015 2 7.50015 2C9.37015 2 10.0002 3.8 10.0002 5.5C10.0002 8.61 8.00015 11.16 8.00015 14.18V16C8.00015 16.5304 7.78944 17.0391 7.41437 17.4142C7.0393 17.7893 6.53059 18 6.00015 18C5.46972 18 4.96101 17.7893 4.58594 17.4142C4.21087 17.0391 4.00015 16.5304 4.00015 16ZM20.0002 20V17.62C20.0002 15.5 21.0302 14.5 21.0002 12C20.9702 9.28 19.5102 6 16.5002 6C14.6302 6 14.0002 7.8 14.0002 9.5C14.0002 12.61 16.0002 15.16 16.0002 18.18V20C16.0002 20.5304 16.2109 21.0391 16.5859 21.4142C16.961 21.7893 17.4697 22 18.0002 22C18.5306 22 19.0393 21.7893 19.4144 21.4142C19.7894 21.0391 20.0002 20.5304 20.0002 20Z" stroke="#D9D9D9" stroke-width="2" stroke-linecap="round" stroke-linejoin="round"/>
</svg>
