<svg width="24" height="24" viewBox="0 0 24 24" fill="none" xmlns="http://www.w3.org/2000/svg">
<path d="M15.9999 17H19.9999M3.99991 13H7.99991M3.99991 16V13.62C3.99991 11.5 2.96991 10.5 2.99991 8C3.02991 5.28 4.48991 2 7.49991 2C9.36991 2 9.99991 3.8 9.99991 5.5C9.99991 8.61 7.99991 11.16 7.99991 14.18V16C7.99991 16.5304 7.7892 17.0391 7.41412 17.4142C7.03905 17.7893 6.53034 18 5.99991 18C5.46948 18 4.96077 17.7893 4.5857 17.4142C4.21062 17.0391 3.99991 16.5304 3.99991 16ZM19.9999 20V17.62C19.9999 15.5 21.0299 14.5 20.9999 12C20.9699 9.28 19.5099 6 16.4999 6C14.6299 6 13.9999 7.8 13.9999 9.5C13.9999 12.61 15.9999 15.16 15.9999 18.18V20C15.9999 20.5304 16.2106 21.0391 16.5857 21.4142C16.9608 21.7893 17.4695 22 17.9999 22C18.5303 22 19.0391 21.7893 19.4141 21.4142C19.7892 21.0391 19.9999 20.5304 19.9999 20Z" stroke="black" stroke-width="2" stroke-linecap="round" stroke-linejoin="round"/>
</svg>
