<svg width="48" height="48" viewBox="0 0 48 48" fill="none" xmlns="http://www.w3.org/2000/svg">
<g clip-path="url(#clip0_563_7478)">
<path d="M21.0566 23.7468H29.7278C30.1706 23.7468 30.5761 23.496 30.773 23.0976L39.8941 4.6836C40.2781 3.9084 39.7142 3 38.849 3H30.1778C29.735 3 29.3294 3.2508 29.1326 3.6492L20.0114 22.0632C19.6274 22.8384 20.1914 23.7468 21.0566 23.7468Z" fill="#D12030"/>
<path d="M26.9437 23.7468H18.2725C17.8297 23.7468 17.4241 23.496 17.2273 23.0976L8.10608 4.6836C7.72208 3.9084 8.28608 3 9.15128 3H17.8225C18.2653 3 18.6709 3.2508 18.8677 3.6492L27.9889 22.0632C28.3729 22.8384 27.8089 23.7468 26.9437 23.7468Z" fill="#EF4452"/>
<path d="M24.0003 45C32.6968 45 39.7467 37.9501 39.7467 29.2536C39.7467 20.5571 32.6968 13.5072 24.0003 13.5072C15.3038 13.5072 8.25391 20.5571 8.25391 29.2536C8.25391 37.9501 15.3038 45 24.0003 45Z" fill="#FFAD00"/>
<path d="M23.9997 41.85C30.9565 41.85 36.5961 36.2104 36.5961 29.2536C36.5961 22.2968 30.9565 16.6572 23.9997 16.6572C17.0429 16.6572 11.4033 22.2968 11.4033 29.2536C11.4033 36.2104 17.0429 41.85 23.9997 41.85Z" fill="#FFC450"/>
<path d="M19.6514 27.2832V24.3144L23.591 21.8508H25.9802V35.964H22.919V25.266L19.6514 27.2832Z" fill="white"/>
</g>
<defs>
<clipPath id="clip0_563_7478">
<rect width="48" height="48" fill="white"/>
</clipPath>
</defs>
</svg>
