<svg width="393" height="305" viewBox="0 0 393 305" fill="none" xmlns="http://www.w3.org/2000/svg">
<rect width="393" height="305" fill="#D2D3D8"/>
<g filter="url(#filter0_d_44_7415)">
<rect x="3" y="22" width="34" height="42" rx="5" fill="white" shape-rendering="crispEdges"/>
<path d="M24.4964 46.6V43.036H15.8284V46.6H24.4964ZM26.1464 48.074H14.1784V37.778H15.8284V41.562H24.4964V37.778H26.1464V48.074Z" fill="black"/>
</g>
<g filter="url(#filter1_d_44_7415)">
<rect x="43" y="22" width="32" height="42" rx="5" fill="white" shape-rendering="crispEdges"/>
<path d="M65.1684 39.186H60.1304V40.704C60.1304 43.718 63.0784 46.006 66.0264 46.82L65.2344 48.118C62.7484 47.37 60.2844 45.632 59.3164 43.586C58.3044 45.676 55.9064 47.436 53.3764 48.206L52.5184 46.93C55.5104 46.094 58.4364 43.828 58.4364 40.792V39.186H53.3984V37.8H65.1684V39.186Z" fill="black"/>
</g>
<g filter="url(#filter2_d_44_7415)">
<rect x="81" y="22" width="34" height="42" rx="5" fill="white" shape-rendering="crispEdges"/>
<path d="M104.19 48.052H92.2664V37.998H104.146V39.472H93.8944V46.578H104.19V48.052Z" fill="black"/>
</g>
<g filter="url(#filter3_d_44_7415)">
<rect x="121" y="22" width="33" height="42" rx="5" fill="white" shape-rendering="crispEdges"/>
<path d="M142.722 48.03H141.094V39.516H131.612V38.042H142.722V48.03Z" fill="black"/>
</g>
<g filter="url(#filter4_d_44_7415)">
<rect x="160" y="22" width="34" height="42" rx="5" fill="white" shape-rendering="crispEdges"/>
<path d="M183.894 46.974L183.278 48.316C180.792 47.766 178.152 45.676 177.228 43.366C176.282 45.654 173.686 47.766 171.112 48.404L170.43 47.062C173.554 46.182 176.348 43.476 176.348 40.572V37.602H178.042V40.506C178.042 43.498 180.748 46.138 183.894 46.974Z" fill="black"/>
</g>
<g filter="url(#filter5_d_44_7415)">
<rect x="200" y="22" width="33" height="42" rx="5" fill="white" shape-rendering="crispEdges"/>
<path d="M225.154 48.184H208.038V46.754H212.812V38.042H214.44V46.754H218.356V38.042H219.984V46.754H225.154V48.184Z" fill="black"/>
</g>
<g filter="url(#filter6_d_44_7415)">
<rect x="239" y="22" width="33" height="42" rx="5" fill="white" shape-rendering="crispEdges"/>
<path d="M256.388 40.836H252.01V39.362H256.388V33.642H258.016V52.628H256.388V45.28H252.01V43.784H256.388V40.836Z" fill="black"/>
</g>
<g filter="url(#filter7_d_44_7415)">
<rect x="278" y="22" width="34" height="42" rx="5" fill="white" shape-rendering="crispEdges"/>
<path d="M299.056 46.138H294.722V52.628H293.116V33.642H294.722V39.78H299.056V41.276H294.722V44.642H299.056V46.138Z" fill="black"/>
</g>
<g filter="url(#filter8_d_44_7415)">
<rect x="318" y="22" width="32" height="42" rx="5" fill="white" shape-rendering="crispEdges"/>
<path d="M337.286 52.65H335.658V42.75H332.622V52.232H331.016V33.928H332.622V41.254H335.658V33.686H337.286V52.65Z" fill="black"/>
</g>
<g filter="url(#filter9_d_44_7415)">
<rect x="356" y="22" width="34" height="42" rx="5" fill="white" shape-rendering="crispEdges"/>
<path d="M376.924 52.562H375.318V33.752H376.924V52.562ZM373.492 51.924H371.886V42.86H368.124V41.386H371.886V33.994H373.492V51.924Z" fill="black"/>
</g>
<g filter="url(#filter10_d_44_7415)">
<rect x="22.5" y="76" width="34" height="42" rx="5" fill="white" shape-rendering="crispEdges"/>
<path d="M44.0184 100.578V93.428H35.3284V100.578H44.0184ZM45.6684 102.052H33.7004V91.954H45.6684V102.052Z" fill="black"/>
</g>
<g filter="url(#filter11_d_44_7415)">
<rect x="62.5" y="76" width="32" height="42" rx="5" fill="white" shape-rendering="crispEdges"/>
<path d="M72.8324 92.042H74.4604V100.534H84.9544V102.03H72.8324V92.042Z" fill="black"/>
</g>
<g filter="url(#filter12_d_44_7415)">
<rect x="100.5" y="76" width="34" height="42" rx="5" fill="white" shape-rendering="crispEdges"/>
<path d="M117.486 93.076C115.066 93.076 113.152 94.374 113.152 96.926C113.152 99.478 115.044 100.842 117.486 100.842C119.95 100.842 121.886 99.478 121.886 96.926C121.886 94.374 119.95 93.076 117.486 93.076ZM123.514 96.926C123.514 100.27 120.83 102.25 117.486 102.25C114.34 102.25 111.458 100.27 111.458 96.926C111.458 93.538 114.34 91.668 117.486 91.668C120.632 91.668 123.514 93.538 123.514 96.926Z" fill="black"/>
</g>
<g filter="url(#filter13_d_44_7415)">
<rect x="140.5" y="76" width="34" height="42" rx="5" fill="white" shape-rendering="crispEdges"/>
<path d="M163.954 102.294H151.656V96.222H162.018V93.23H151.656V91.778H163.668V97.696H153.306V100.82H163.954V102.294Z" fill="black"/>
</g>
<g filter="url(#filter14_d_44_7415)">
<rect x="180.5" y="76" width="32" height="42" rx="5" fill="white" shape-rendering="crispEdges"/>
<path d="M199.764 92.416H193.648V91.008H199.764V92.416ZM199.566 99.5C199.566 98.246 198.4 97.476 196.728 97.476C195.056 97.476 193.846 98.246 193.846 99.5C193.846 100.754 195.056 101.524 196.728 101.524C198.4 101.524 199.566 100.754 199.566 99.5ZM203.086 95.144H190.26V93.736H203.086V95.144ZM201.216 99.5C201.216 101.612 199.214 102.91 196.728 102.91C194.176 102.91 192.218 101.612 192.218 99.5C192.218 97.388 194.176 96.112 196.728 96.112C199.236 96.112 201.216 97.388 201.216 99.5Z" fill="black"/>
</g>
<g filter="url(#filter15_d_44_7415)">
<rect x="218.5" y="76" width="34" height="42" rx="5" fill="white" shape-rendering="crispEdges"/>
<path d="M244.154 101.7H226.84V100.204H234.606V92.13H236.234V100.204H244.154V101.7Z" fill="black"/>
</g>
<g filter="url(#filter16_d_44_7415)">
<rect x="258.5" y="76" width="34" height="42" rx="5" fill="white" shape-rendering="crispEdges"/>
<path d="M276.454 95.65V87.708H278.082V106.65H276.454V97.146H272.032V95.65H276.454Z" fill="black"/>
</g>
<g filter="url(#filter17_d_44_7415)">
<rect x="298.5" y="76" width="32" height="42" rx="5" fill="white" shape-rendering="crispEdges"/>
<path d="M315.058 87.708V95.562H319.392V97.058H315.058V106.65H313.43V87.708H315.058Z" fill="black"/>
</g>
<g filter="url(#filter18_d_44_7415)">
<rect x="336.5" y="76" width="34" height="42" rx="5" fill="white" shape-rendering="crispEdges"/>
<path d="M352.892 106.738V87.752H354.52V106.738H352.892Z" fill="black"/>
</g>
<g filter="url(#filter19_d_44_7415)">
<rect x="3" y="130" width="44" height="42" rx="5" fill="#ABB0BC" shape-rendering="crispEdges"/>
<path fill-rule="evenodd" clip-rule="evenodd" d="M24.1515 142.755C24.6201 142.286 25.3799 142.286 25.8485 142.755L34.6414 151.548C35.3974 152.304 34.862 153.596 33.7929 153.596H29.9105V157.396C29.9105 158.611 28.9256 159.596 27.7105 159.596H22.2895C21.0744 159.596 20.0895 158.611 20.0895 157.396V153.596H16.2071C15.138 153.596 14.6026 152.304 15.3586 151.548L24.1515 142.755ZM25 143.886L16.6899 152.196H21.4895V157.396C21.4895 157.838 21.8476 158.196 22.2895 158.196H27.7105C28.1524 158.196 28.5105 157.838 28.5105 157.396V152.196H33.3101L25 143.886Z" fill="black"/>
</g>
<g filter="url(#filter20_d_44_7415)">
<rect x="61" y="130" width="34" height="42" rx="5" fill="white" shape-rendering="crispEdges"/>
<path d="M84.1244 145.8V156.206H82.4304V151.872H71.9804V150.442H82.4304V147.274H72.2004V145.8H84.1244Z" fill="black"/>
</g>
<g filter="url(#filter21_d_44_7415)">
<rect x="101" y="130" width="33" height="42" rx="5" fill="white" shape-rendering="crispEdges"/>
<path d="M123.866 154.622V156.096H111.766V145.954H123.778V147.428H113.416V150.178H123.58V151.674H113.416V154.622H123.866Z" fill="black"/>
</g>
<g filter="url(#filter22_d_44_7415)">
<rect x="140" y="130" width="34" height="42" rx="5" fill="white" shape-rendering="crispEdges"/>
<path d="M160.352 146.328H154.016V144.92H160.352V146.328ZM162.948 149.122H158.064V149.694C158.064 152.576 160.968 154.754 163.85 155.458L163.146 156.844C160.352 156.162 158.174 154.336 157.228 152.532C156.26 154.336 153.928 156.25 151.222 156.954L150.496 155.568C153.4 154.754 156.282 152.598 156.282 149.782V149.122H151.332V147.714H162.948V149.122Z" fill="black"/>
</g>
<g filter="url(#filter23_d_44_7415)">
<rect x="180" y="130" width="32" height="42" rx="5" fill="white" shape-rendering="crispEdges"/>
<path d="M202.674 154.688V156.096H189.716V154.688H192.818L192.29 148.462L193.852 148.286L194.336 154.688H198.01L198.67 148.286L200.21 148.462L199.528 154.688H202.674ZM202.366 146.042V147.45H190.024V146.042H202.366Z" fill="black"/>
</g>
<g filter="url(#filter24_d_44_7415)">
<rect x="218" y="130" width="34" height="42" rx="5" fill="white" shape-rendering="crispEdges"/>
<path d="M238.814 157.144H237.186V148.828H232.808V157.144H231.158V148.828H226.34V147.398H243.654V148.828H238.814V157.144Z" fill="black"/>
</g>
<g filter="url(#filter25_d_44_7415)">
<rect x="258" y="130" width="33" height="42" rx="5" fill="white" shape-rendering="crispEdges"/>
<path d="M275.476 156.644H273.826V148.482H266.192V147.052H283.154V148.482H275.476V156.644Z" fill="black"/>
</g>
<g filter="url(#filter26_d_44_7415)">
<rect x="297" y="130" width="34" height="42" rx="5" fill="white" shape-rendering="crispEdges"/>
<path d="M322.654 152.942H305.34V151.512H322.654V152.942Z" fill="black"/>
</g>
<g filter="url(#filter27_d_44_7415)">
<rect x="346" y="130" width="44" height="42" rx="5" fill="#ABB0BC" shape-rendering="crispEdges"/>
<path d="M367.459 147.54C367.206 147.287 366.794 147.287 366.54 147.54C366.286 147.794 366.286 148.206 366.54 148.46L369.081 151L366.54 153.54C366.286 153.794 366.286 154.206 366.54 154.46C366.794 154.713 367.206 154.713 367.459 154.46L370 151.919L372.54 154.46C372.794 154.713 373.206 154.713 373.459 154.46C373.713 154.206 373.713 153.794 373.459 153.54L370.919 151L373.459 148.46C373.713 148.206 373.713 147.794 373.459 147.54C373.206 147.287 372.794 147.287 372.54 147.54L370 150.081L367.459 147.54Z" fill="black"/>
<path fill-rule="evenodd" clip-rule="evenodd" d="M365.185 142.8C364.406 142.8 363.657 143.103 363.098 143.645L356.613 149.922C356.004 150.512 356.004 151.488 356.613 152.078L363.098 158.355C363.657 158.897 364.406 159.2 365.185 159.2H375.66C377.505 159.2 379 157.705 379 155.86V146.3C379 144.367 377.433 142.8 375.5 142.8H365.185ZM375.5 144.2C376.66 144.2 377.6 145.14 377.6 146.3V155.86C377.6 156.932 376.732 157.8 375.66 157.8H365.185C364.769 157.8 364.37 157.638 364.072 157.35L357.587 151.072C357.546 151.033 357.546 150.967 357.587 150.928L364.072 144.65C364.37 144.362 364.769 144.2 365.185 144.2H375.5Z" fill="black"/>
</g>
<g filter="url(#filter28_d_44_7415)">
<rect x="3" y="184" width="42" height="42" rx="5" fill="#ABB0BC" shape-rendering="crispEdges"/>
<path d="M14.9766 211H16.3359V199.727H14.9609L11.9609 201.883V203.297L14.9453 201.219H14.9766V211Z" fill="black"/>
<path d="M19.1953 211H26.6328V209.75H21.125V209.719L23.8047 206.969C25.875 204.852 26.4453 203.922 26.4453 202.688V202.672C26.4453 200.906 24.9531 199.539 22.9141 199.539C20.8125 199.539 19.125 200.984 19.125 202.938V202.984H20.4844V202.945C20.4844 201.734 21.5312 200.766 22.9375 200.766C24.1641 200.766 25.0312 201.594 25.0391 202.742V202.758C25.0391 203.695 24.6875 204.305 23.1641 205.891L19.1953 210.031V211Z" fill="black"/>
<path d="M32.0547 211.188C34.3125 211.188 35.9688 209.797 35.9688 207.914V207.898C35.9688 206.297 34.8516 205.273 33.2109 205.133V205.102C34.6172 204.805 35.6016 203.852 35.6016 202.461V202.445C35.6016 200.734 34.1875 199.539 32.0391 199.539C29.9297 199.539 28.4766 200.766 28.2969 202.602L28.2891 202.68H29.6406L29.6484 202.602C29.7656 201.461 30.7109 200.758 32.0391 200.758C33.4141 200.758 34.1875 201.438 34.1875 202.617V202.633C34.1875 203.758 33.25 204.586 31.9062 204.586H30.5547V205.773H31.9688C33.5469 205.773 34.5391 206.547 34.5391 207.93V207.945C34.5391 209.141 33.5312 209.969 32.0547 209.969C30.5547 209.969 29.5391 209.203 29.4219 208.094L29.4141 208.016H28.0625L28.0703 208.109C28.2188 209.891 29.7266 211.188 32.0547 211.188Z" fill="black"/>
</g>
<g filter="url(#filter29_d_44_7415)">
<rect x="51" y="184" width="43" height="42" rx="5" fill="#ABB0BC" shape-rendering="crispEdges"/>
<path fill-rule="evenodd" clip-rule="evenodd" d="M72.5 195C78.0228 195 82.5 199.477 82.5 205C82.5 210.523 78.0228 215 72.5 215C66.9772 215 62.5 210.523 62.5 205C62.5 199.477 66.9772 195 72.5 195ZM72.5 196.165C77.3793 196.166 81.3344 200.121 81.334 205.001C81.3336 209.88 77.378 213.835 72.4987 213.835C67.6194 213.835 63.664 209.879 63.664 205C63.6641 202.657 64.5951 200.409 66.2521 198.752C67.9092 197.096 70.1567 196.165 72.5 196.165ZM69.3365 200.662C69.0274 200.659 68.7298 200.779 68.5102 200.997C68.2906 201.214 68.1674 201.511 68.1683 201.82C68.1683 202.465 68.6913 202.988 69.3365 202.988C69.9817 202.988 70.5048 202.465 70.5048 201.82C70.5056 201.511 70.3824 201.214 70.1628 200.997C69.9432 200.779 69.6456 200.659 69.3365 200.662ZM79.1642 206.722C78.6317 209.6 75.8545 212.002 72.4987 212.002C69.1697 212.002 66.4087 209.635 65.845 206.79C65.7307 206.08 66.3122 205.912 66.86 206.045C68.6924 206.575 70.5927 206.833 72.5 206.81C74.403 206.832 76.299 206.575 78.1275 206.047C78.66 205.912 79.2302 206.065 79.1642 206.722ZM77.3565 207.122C77.3045 207.142 77.2517 207.157 77.1985 207.175C77.193 207.177 77.369 207.12 77.3637 207.122C75.7826 207.558 74.1481 207.769 72.5082 207.75C70.5512 207.75 68.801 207.532 67.5965 207.1C66.7232 206.84 66.8907 207.867 67.5045 208.182C69.0746 208.897 70.7829 209.257 72.508 209.237C74.56 209.237 76.3885 208.76 77.5962 208.142C78.1677 207.775 78.2807 206.79 77.3565 207.122ZM75.67 200.662C75.3609 200.659 75.0632 200.779 74.8436 200.997C74.624 201.214 74.5007 201.511 74.5015 201.82C74.4953 202.241 74.7167 202.634 75.0807 202.846C75.4447 203.059 75.895 203.059 76.2591 202.846C76.6231 202.634 76.8444 202.241 76.8382 201.82C76.839 201.511 76.7158 201.214 76.4963 200.997C76.2767 200.779 75.9791 200.659 75.67 200.662Z" fill="black"/>
</g>
<g filter="url(#filter30_d_44_7415)">
<rect x="100" y="184" width="95" height="42" rx="5" fill="white" shape-rendering="crispEdges"/>
<path d="M132.581 203.336L131.909 204.36C129.557 203.656 127.285 201.672 126.709 200.248C126.213 201.672 123.989 203.656 121.557 204.344L120.917 203.304C123.189 202.856 126.101 200.696 126.101 198.408V197.304H127.365V198.408C127.365 200.696 130.437 202.856 132.581 203.336ZM133.045 208.2H120.421V207.176H133.045V208.2ZM141.208 206.232C140.456 206.344 139.224 206.456 137.992 206.52C136.696 206.6 135.464 206.648 134.28 206.648L134.088 205.592H135.64L135.224 199.816L136.44 199.656C136.536 201.624 136.68 203.592 136.792 205.56L137.912 205.512C138.008 205.512 138.104 205.512 138.216 205.496C138.328 203.56 138.456 201.592 138.584 199.656L139.8 199.784C139.64 201.656 139.48 203.544 139.288 205.432C139.976 205.368 140.6 205.32 141.096 205.24C141.128 205.576 141.16 205.896 141.208 206.232ZM143.448 209.4H142.264V202.52H140.344V201.512H142.264V196.472H143.448V209.4ZM146.056 210.12H144.856V196.136H146.056V210.12ZM140.76 198.888H134.44V197.88H140.76V198.888ZM159.612 210.12H158.396V196.136H159.612V210.12ZM148.572 202.12C148.572 199.176 149.884 197.192 152.172 197.192C154.492 197.192 155.788 199.176 155.788 202.136C155.788 205.096 154.492 207.08 152.172 207.08C149.884 207.08 148.572 205.096 148.572 202.12ZM154.636 202.136C154.636 199.832 153.66 198.248 152.172 198.248C150.7 198.248 149.724 199.832 149.724 202.136C149.724 204.424 150.7 206.024 152.172 206.024C153.66 206.024 154.636 204.424 154.636 202.136ZM174.112 203.336L173.44 204.36C171.088 203.656 168.816 201.672 168.24 200.248C167.744 201.672 165.52 203.656 163.088 204.344L162.448 203.304C164.72 202.856 167.632 200.696 167.632 198.408V197.304H168.896V198.408C168.896 200.696 171.968 202.856 174.112 203.336ZM174.576 208.2H161.952V207.176H174.576V208.2Z" fill="black"/>
</g>
<g filter="url(#filter31_d_44_7415)">
<rect x="201" y="184" width="43" height="42" rx="5" fill="white" shape-rendering="crispEdges"/>
<path d="M222.983 213.524C224.369 213.524 225.669 213.331 226.614 212.998V211.537C225.916 211.849 224.444 212.053 223.005 212.053C218.751 212.053 215.561 209.41 215.561 204.587V204.576C215.561 200.161 218.547 197.057 222.672 197.057C226.915 197.057 229.805 199.656 229.805 203.813V203.824C229.805 206.445 229.031 207.767 227.903 207.767C227.055 207.767 226.475 207.047 226.475 205.564V200.333H224.853V201.644H224.767C224.358 200.73 223.316 200.129 222.167 200.129C219.965 200.129 218.429 201.944 218.429 204.576V204.587C218.429 207.305 219.933 209.131 222.167 209.131C223.542 209.131 224.648 208.497 225.153 207.197H225.25L225.282 207.294C225.637 208.368 226.528 209.228 227.882 209.228C229.88 209.228 231.427 207.369 231.427 203.813V203.803C231.427 198.754 227.796 195.596 222.812 195.596C217.591 195.596 213.938 199.248 213.938 204.565V204.576C213.938 210.345 217.752 213.524 222.983 213.524ZM222.414 207.616C221.007 207.616 220.147 206.478 220.147 204.598V204.587C220.147 202.718 220.996 201.611 222.436 201.611C223.886 201.611 224.831 202.761 224.831 204.598V204.608C224.831 206.445 223.886 207.616 222.414 207.616Z" fill="black"/>
</g>
<g filter="url(#filter32_d_44_7415)">
<rect x="250" y="184" width="43" height="42" rx="5" fill="white" shape-rendering="crispEdges"/>
<path d="M271.5 211.15C272.188 211.15 272.725 210.613 272.725 209.926C272.725 209.238 272.188 208.701 271.5 208.701C270.812 208.701 270.275 209.238 270.275 209.926C270.275 210.613 270.812 211.15 271.5 211.15Z" fill="black"/>
</g>
<g filter="url(#filter33_d_44_7415)">
<rect x="299" y="184" width="91" height="42" rx="5" fill="#ABB0BC" shape-rendering="crispEdges"/>
<path fill-rule="evenodd" clip-rule="evenodd" d="M351.75 205V197.5H353.25V205C353.25 206.519 352.019 207.75 350.5 207.75H337.94L342.005 211.445L340.995 212.555L335.495 207.555C335.334 207.408 335.245 207.199 335.25 206.98C335.256 206.762 335.356 206.558 335.525 206.42L341.025 201.92L341.975 203.08L338.101 206.25H350.5C351.19 206.25 351.75 205.69 351.75 205Z" fill="black"/>
</g>
<rect x="126" y="292" width="138" height="5" rx="2.5" fill="black"/>
<path fill-rule="evenodd" clip-rule="evenodd" d="M52.3259 273.697C54.3065 271.348 55.5 268.313 55.5 265C55.5 257.544 49.4558 251.5 42 251.5C34.5442 251.5 28.5 257.544 28.5 265C28.5 268.313 29.6935 271.348 31.6741 273.697C31.6625 273.711 31.6509 273.724 31.6393 273.738C31.9632 274.125 32.3083 274.494 32.6729 274.843C32.6856 274.827 32.6982 274.812 32.7109 274.796C35.131 277.092 38.4011 278.5 42 278.5C45.5989 278.5 48.869 277.092 51.2891 274.796C51.3018 274.812 51.3144 274.827 51.3271 274.843C51.6917 274.494 52.0368 274.125 52.3607 273.738C52.3491 273.724 52.3375 273.711 52.3259 273.697ZM41.25 270.417V276.867C40.326 276.547 39.2982 275.623 38.3819 273.855C37.996 273.111 37.655 272.259 37.373 271.318C38.5782 270.814 39.8831 270.501 41.25 270.417ZM42.75 270.417V276.867C43.674 276.547 44.7018 275.623 45.6181 273.855C46.004 273.111 46.345 272.259 46.627 271.318C45.4218 270.814 44.1169 270.501 42.75 270.417ZM47.0027 269.851C45.6759 269.321 44.2453 268.996 42.75 268.914V265.75H47.4888C47.4449 267.209 47.274 268.589 47.0027 269.851ZM47.989 271.993C47.4284 273.774 46.6601 275.286 45.7489 276.403C47.4567 275.842 48.9953 274.908 50.2684 273.697C49.5809 273.043 48.8161 272.47 47.989 271.993ZM51.2891 272.597C50.4247 271.778 49.4519 271.071 48.3944 270.501C48.7336 269.037 48.9416 267.434 48.9894 265.75H53.9769C53.8172 268.341 52.8353 270.709 51.2891 272.597ZM32.7109 272.598C33.5753 271.778 34.5481 271.071 35.6056 270.501C35.2664 269.037 35.0584 267.434 35.0106 265.75H30.0231C30.1828 268.341 31.1647 270.709 32.7109 272.598ZM36.9973 269.851C36.726 268.589 36.5551 267.209 36.5112 265.75H41.25V268.914C39.7547 268.996 38.3241 269.321 36.9973 269.851ZM36.011 271.993C35.1839 272.47 34.4191 273.043 33.7316 273.697C35.0047 274.908 36.5433 275.842 38.2511 276.403C37.3399 275.286 36.5716 273.774 36.011 271.993ZM41.25 264.25H36.5112C36.5574 262.716 36.7441 261.268 37.0404 259.953C38.3551 260.473 39.7708 260.792 41.25 260.873V264.25ZM41.25 259.371C39.905 259.288 38.6199 258.983 37.4308 258.493C37.7012 257.627 38.022 256.839 38.3819 256.145C39.2982 254.377 40.326 253.453 41.25 253.133V259.371ZM42.75 260.873V264.25H47.4888C47.4426 262.716 47.2559 261.268 46.9596 259.953C45.6449 260.473 44.2292 260.792 42.75 260.873ZM46.5692 258.493C45.3801 258.983 44.095 259.288 42.75 259.371V253.133C43.674 253.453 44.7018 254.377 45.6181 256.145C45.978 256.839 46.2988 257.627 46.5692 258.493ZM48.3497 259.31C48.7154 260.825 48.9395 262.493 48.9894 264.25H53.9769C53.8138 261.604 52.7933 259.19 51.1899 257.283C50.3382 258.075 49.3841 258.758 48.3497 259.31ZM50.1551 256.197C49.4811 256.821 48.7353 257.37 47.9314 257.828C47.3763 256.124 46.6293 254.676 45.7489 253.597C47.4063 254.142 48.9044 255.038 50.1551 256.197ZM36.0686 257.828C36.6237 256.124 37.3707 254.676 38.2511 253.597C36.5937 254.142 35.0956 255.038 33.8449 256.197C34.5189 256.821 35.2647 257.37 36.0686 257.828ZM32.8102 257.283C31.2067 259.19 30.1862 261.604 30.0231 264.25H35.0106C35.0605 262.493 35.2846 260.825 35.6503 259.31C34.6159 258.758 33.6618 258.075 32.8102 257.283Z" fill="#51555B"/>
<path fill-rule="evenodd" clip-rule="evenodd" d="M351.42 250C348.907 250 346.87 252.037 346.87 254.55V264.05C346.87 266.563 348.907 268.6 351.42 268.6C353.933 268.6 355.97 266.563 355.97 264.05V254.55C355.97 252.037 353.933 250 351.42 250ZM348.47 254.55C348.47 252.921 349.791 251.6 351.42 251.6C353.049 251.6 354.37 252.921 354.37 254.55V264.05C354.37 265.679 353.049 267 351.42 267C349.791 267 348.47 265.679 348.47 264.05V254.55Z" fill="#51555B"/>
<path d="M345.42 276.5C344.978 276.5 344.62 276.858 344.62 277.3C344.62 277.742 344.978 278.1 345.42 278.1H357.42C357.862 278.1 358.22 277.742 358.22 277.3C358.22 276.858 357.862 276.5 357.42 276.5H352.22V273.258C356.895 273.049 360.62 269.193 360.62 264.467V261.5C360.62 261.058 360.262 260.7 359.82 260.7C359.378 260.7 359.02 261.058 359.02 261.5V264.467C359.02 268.443 355.797 271.667 351.82 271.667H351.02C347.044 271.667 343.82 268.443 343.82 264.467V261.5C343.82 261.058 343.462 260.7 343.02 260.7C342.578 260.7 342.22 261.058 342.22 261.5V264.467C342.22 269.193 345.946 273.049 350.62 273.258V276.5H345.42Z" fill="#51555B"/>
<defs>
<filter id="filter0_d_44_7415" x="3" y="22" width="34" height="43" filterUnits="userSpaceOnUse" color-interpolation-filters="sRGB">
<feFlood flood-opacity="0" result="BackgroundImageFix"/>
<feColorMatrix in="SourceAlpha" type="matrix" values="0 0 0 0 0 0 0 0 0 0 0 0 0 0 0 0 0 0 127 0" result="hardAlpha"/>
<feOffset dy="1"/>
<feComposite in2="hardAlpha" operator="out"/>
<feColorMatrix type="matrix" values="0 0 0 0 0 0 0 0 0 0 0 0 0 0 0 0 0 0 0.3 0"/>
<feBlend mode="normal" in2="BackgroundImageFix" result="effect1_dropShadow_44_7415"/>
<feBlend mode="normal" in="SourceGraphic" in2="effect1_dropShadow_44_7415" result="shape"/>
</filter>
<filter id="filter1_d_44_7415" x="43" y="22" width="32" height="43" filterUnits="userSpaceOnUse" color-interpolation-filters="sRGB">
<feFlood flood-opacity="0" result="BackgroundImageFix"/>
<feColorMatrix in="SourceAlpha" type="matrix" values="0 0 0 0 0 0 0 0 0 0 0 0 0 0 0 0 0 0 127 0" result="hardAlpha"/>
<feOffset dy="1"/>
<feComposite in2="hardAlpha" operator="out"/>
<feColorMatrix type="matrix" values="0 0 0 0 0 0 0 0 0 0 0 0 0 0 0 0 0 0 0.3 0"/>
<feBlend mode="normal" in2="BackgroundImageFix" result="effect1_dropShadow_44_7415"/>
<feBlend mode="normal" in="SourceGraphic" in2="effect1_dropShadow_44_7415" result="shape"/>
</filter>
<filter id="filter2_d_44_7415" x="81" y="22" width="34" height="43" filterUnits="userSpaceOnUse" color-interpolation-filters="sRGB">
<feFlood flood-opacity="0" result="BackgroundImageFix"/>
<feColorMatrix in="SourceAlpha" type="matrix" values="0 0 0 0 0 0 0 0 0 0 0 0 0 0 0 0 0 0 127 0" result="hardAlpha"/>
<feOffset dy="1"/>
<feComposite in2="hardAlpha" operator="out"/>
<feColorMatrix type="matrix" values="0 0 0 0 0 0 0 0 0 0 0 0 0 0 0 0 0 0 0.3 0"/>
<feBlend mode="normal" in2="BackgroundImageFix" result="effect1_dropShadow_44_7415"/>
<feBlend mode="normal" in="SourceGraphic" in2="effect1_dropShadow_44_7415" result="shape"/>
</filter>
<filter id="filter3_d_44_7415" x="121" y="22" width="33" height="43" filterUnits="userSpaceOnUse" color-interpolation-filters="sRGB">
<feFlood flood-opacity="0" result="BackgroundImageFix"/>
<feColorMatrix in="SourceAlpha" type="matrix" values="0 0 0 0 0 0 0 0 0 0 0 0 0 0 0 0 0 0 127 0" result="hardAlpha"/>
<feOffset dy="1"/>
<feComposite in2="hardAlpha" operator="out"/>
<feColorMatrix type="matrix" values="0 0 0 0 0 0 0 0 0 0 0 0 0 0 0 0 0 0 0.3 0"/>
<feBlend mode="normal" in2="BackgroundImageFix" result="effect1_dropShadow_44_7415"/>
<feBlend mode="normal" in="SourceGraphic" in2="effect1_dropShadow_44_7415" result="shape"/>
</filter>
<filter id="filter4_d_44_7415" x="160" y="22" width="34" height="43" filterUnits="userSpaceOnUse" color-interpolation-filters="sRGB">
<feFlood flood-opacity="0" result="BackgroundImageFix"/>
<feColorMatrix in="SourceAlpha" type="matrix" values="0 0 0 0 0 0 0 0 0 0 0 0 0 0 0 0 0 0 127 0" result="hardAlpha"/>
<feOffset dy="1"/>
<feComposite in2="hardAlpha" operator="out"/>
<feColorMatrix type="matrix" values="0 0 0 0 0 0 0 0 0 0 0 0 0 0 0 0 0 0 0.3 0"/>
<feBlend mode="normal" in2="BackgroundImageFix" result="effect1_dropShadow_44_7415"/>
<feBlend mode="normal" in="SourceGraphic" in2="effect1_dropShadow_44_7415" result="shape"/>
</filter>
<filter id="filter5_d_44_7415" x="200" y="22" width="33" height="43" filterUnits="userSpaceOnUse" color-interpolation-filters="sRGB">
<feFlood flood-opacity="0" result="BackgroundImageFix"/>
<feColorMatrix in="SourceAlpha" type="matrix" values="0 0 0 0 0 0 0 0 0 0 0 0 0 0 0 0 0 0 127 0" result="hardAlpha"/>
<feOffset dy="1"/>
<feComposite in2="hardAlpha" operator="out"/>
<feColorMatrix type="matrix" values="0 0 0 0 0 0 0 0 0 0 0 0 0 0 0 0 0 0 0.3 0"/>
<feBlend mode="normal" in2="BackgroundImageFix" result="effect1_dropShadow_44_7415"/>
<feBlend mode="normal" in="SourceGraphic" in2="effect1_dropShadow_44_7415" result="shape"/>
</filter>
<filter id="filter6_d_44_7415" x="239" y="22" width="33" height="43" filterUnits="userSpaceOnUse" color-interpolation-filters="sRGB">
<feFlood flood-opacity="0" result="BackgroundImageFix"/>
<feColorMatrix in="SourceAlpha" type="matrix" values="0 0 0 0 0 0 0 0 0 0 0 0 0 0 0 0 0 0 127 0" result="hardAlpha"/>
<feOffset dy="1"/>
<feComposite in2="hardAlpha" operator="out"/>
<feColorMatrix type="matrix" values="0 0 0 0 0 0 0 0 0 0 0 0 0 0 0 0 0 0 0.3 0"/>
<feBlend mode="normal" in2="BackgroundImageFix" result="effect1_dropShadow_44_7415"/>
<feBlend mode="normal" in="SourceGraphic" in2="effect1_dropShadow_44_7415" result="shape"/>
</filter>
<filter id="filter7_d_44_7415" x="278" y="22" width="34" height="43" filterUnits="userSpaceOnUse" color-interpolation-filters="sRGB">
<feFlood flood-opacity="0" result="BackgroundImageFix"/>
<feColorMatrix in="SourceAlpha" type="matrix" values="0 0 0 0 0 0 0 0 0 0 0 0 0 0 0 0 0 0 127 0" result="hardAlpha"/>
<feOffset dy="1"/>
<feComposite in2="hardAlpha" operator="out"/>
<feColorMatrix type="matrix" values="0 0 0 0 0 0 0 0 0 0 0 0 0 0 0 0 0 0 0.3 0"/>
<feBlend mode="normal" in2="BackgroundImageFix" result="effect1_dropShadow_44_7415"/>
<feBlend mode="normal" in="SourceGraphic" in2="effect1_dropShadow_44_7415" result="shape"/>
</filter>
<filter id="filter8_d_44_7415" x="318" y="22" width="32" height="43" filterUnits="userSpaceOnUse" color-interpolation-filters="sRGB">
<feFlood flood-opacity="0" result="BackgroundImageFix"/>
<feColorMatrix in="SourceAlpha" type="matrix" values="0 0 0 0 0 0 0 0 0 0 0 0 0 0 0 0 0 0 127 0" result="hardAlpha"/>
<feOffset dy="1"/>
<feComposite in2="hardAlpha" operator="out"/>
<feColorMatrix type="matrix" values="0 0 0 0 0 0 0 0 0 0 0 0 0 0 0 0 0 0 0.3 0"/>
<feBlend mode="normal" in2="BackgroundImageFix" result="effect1_dropShadow_44_7415"/>
<feBlend mode="normal" in="SourceGraphic" in2="effect1_dropShadow_44_7415" result="shape"/>
</filter>
<filter id="filter9_d_44_7415" x="356" y="22" width="34" height="43" filterUnits="userSpaceOnUse" color-interpolation-filters="sRGB">
<feFlood flood-opacity="0" result="BackgroundImageFix"/>
<feColorMatrix in="SourceAlpha" type="matrix" values="0 0 0 0 0 0 0 0 0 0 0 0 0 0 0 0 0 0 127 0" result="hardAlpha"/>
<feOffset dy="1"/>
<feComposite in2="hardAlpha" operator="out"/>
<feColorMatrix type="matrix" values="0 0 0 0 0 0 0 0 0 0 0 0 0 0 0 0 0 0 0.3 0"/>
<feBlend mode="normal" in2="BackgroundImageFix" result="effect1_dropShadow_44_7415"/>
<feBlend mode="normal" in="SourceGraphic" in2="effect1_dropShadow_44_7415" result="shape"/>
</filter>
<filter id="filter10_d_44_7415" x="22.5" y="76" width="34" height="43" filterUnits="userSpaceOnUse" color-interpolation-filters="sRGB">
<feFlood flood-opacity="0" result="BackgroundImageFix"/>
<feColorMatrix in="SourceAlpha" type="matrix" values="0 0 0 0 0 0 0 0 0 0 0 0 0 0 0 0 0 0 127 0" result="hardAlpha"/>
<feOffset dy="1"/>
<feComposite in2="hardAlpha" operator="out"/>
<feColorMatrix type="matrix" values="0 0 0 0 0 0 0 0 0 0 0 0 0 0 0 0 0 0 0.3 0"/>
<feBlend mode="normal" in2="BackgroundImageFix" result="effect1_dropShadow_44_7415"/>
<feBlend mode="normal" in="SourceGraphic" in2="effect1_dropShadow_44_7415" result="shape"/>
</filter>
<filter id="filter11_d_44_7415" x="62.5" y="76" width="32" height="43" filterUnits="userSpaceOnUse" color-interpolation-filters="sRGB">
<feFlood flood-opacity="0" result="BackgroundImageFix"/>
<feColorMatrix in="SourceAlpha" type="matrix" values="0 0 0 0 0 0 0 0 0 0 0 0 0 0 0 0 0 0 127 0" result="hardAlpha"/>
<feOffset dy="1"/>
<feComposite in2="hardAlpha" operator="out"/>
<feColorMatrix type="matrix" values="0 0 0 0 0 0 0 0 0 0 0 0 0 0 0 0 0 0 0.3 0"/>
<feBlend mode="normal" in2="BackgroundImageFix" result="effect1_dropShadow_44_7415"/>
<feBlend mode="normal" in="SourceGraphic" in2="effect1_dropShadow_44_7415" result="shape"/>
</filter>
<filter id="filter12_d_44_7415" x="100.5" y="76" width="34" height="43" filterUnits="userSpaceOnUse" color-interpolation-filters="sRGB">
<feFlood flood-opacity="0" result="BackgroundImageFix"/>
<feColorMatrix in="SourceAlpha" type="matrix" values="0 0 0 0 0 0 0 0 0 0 0 0 0 0 0 0 0 0 127 0" result="hardAlpha"/>
<feOffset dy="1"/>
<feComposite in2="hardAlpha" operator="out"/>
<feColorMatrix type="matrix" values="0 0 0 0 0 0 0 0 0 0 0 0 0 0 0 0 0 0 0.3 0"/>
<feBlend mode="normal" in2="BackgroundImageFix" result="effect1_dropShadow_44_7415"/>
<feBlend mode="normal" in="SourceGraphic" in2="effect1_dropShadow_44_7415" result="shape"/>
</filter>
<filter id="filter13_d_44_7415" x="140.5" y="76" width="34" height="43" filterUnits="userSpaceOnUse" color-interpolation-filters="sRGB">
<feFlood flood-opacity="0" result="BackgroundImageFix"/>
<feColorMatrix in="SourceAlpha" type="matrix" values="0 0 0 0 0 0 0 0 0 0 0 0 0 0 0 0 0 0 127 0" result="hardAlpha"/>
<feOffset dy="1"/>
<feComposite in2="hardAlpha" operator="out"/>
<feColorMatrix type="matrix" values="0 0 0 0 0 0 0 0 0 0 0 0 0 0 0 0 0 0 0.3 0"/>
<feBlend mode="normal" in2="BackgroundImageFix" result="effect1_dropShadow_44_7415"/>
<feBlend mode="normal" in="SourceGraphic" in2="effect1_dropShadow_44_7415" result="shape"/>
</filter>
<filter id="filter14_d_44_7415" x="180.5" y="76" width="32" height="43" filterUnits="userSpaceOnUse" color-interpolation-filters="sRGB">
<feFlood flood-opacity="0" result="BackgroundImageFix"/>
<feColorMatrix in="SourceAlpha" type="matrix" values="0 0 0 0 0 0 0 0 0 0 0 0 0 0 0 0 0 0 127 0" result="hardAlpha"/>
<feOffset dy="1"/>
<feComposite in2="hardAlpha" operator="out"/>
<feColorMatrix type="matrix" values="0 0 0 0 0 0 0 0 0 0 0 0 0 0 0 0 0 0 0.3 0"/>
<feBlend mode="normal" in2="BackgroundImageFix" result="effect1_dropShadow_44_7415"/>
<feBlend mode="normal" in="SourceGraphic" in2="effect1_dropShadow_44_7415" result="shape"/>
</filter>
<filter id="filter15_d_44_7415" x="218.5" y="76" width="34" height="43" filterUnits="userSpaceOnUse" color-interpolation-filters="sRGB">
<feFlood flood-opacity="0" result="BackgroundImageFix"/>
<feColorMatrix in="SourceAlpha" type="matrix" values="0 0 0 0 0 0 0 0 0 0 0 0 0 0 0 0 0 0 127 0" result="hardAlpha"/>
<feOffset dy="1"/>
<feComposite in2="hardAlpha" operator="out"/>
<feColorMatrix type="matrix" values="0 0 0 0 0 0 0 0 0 0 0 0 0 0 0 0 0 0 0.3 0"/>
<feBlend mode="normal" in2="BackgroundImageFix" result="effect1_dropShadow_44_7415"/>
<feBlend mode="normal" in="SourceGraphic" in2="effect1_dropShadow_44_7415" result="shape"/>
</filter>
<filter id="filter16_d_44_7415" x="258.5" y="76" width="34" height="43" filterUnits="userSpaceOnUse" color-interpolation-filters="sRGB">
<feFlood flood-opacity="0" result="BackgroundImageFix"/>
<feColorMatrix in="SourceAlpha" type="matrix" values="0 0 0 0 0 0 0 0 0 0 0 0 0 0 0 0 0 0 127 0" result="hardAlpha"/>
<feOffset dy="1"/>
<feComposite in2="hardAlpha" operator="out"/>
<feColorMatrix type="matrix" values="0 0 0 0 0 0 0 0 0 0 0 0 0 0 0 0 0 0 0.3 0"/>
<feBlend mode="normal" in2="BackgroundImageFix" result="effect1_dropShadow_44_7415"/>
<feBlend mode="normal" in="SourceGraphic" in2="effect1_dropShadow_44_7415" result="shape"/>
</filter>
<filter id="filter17_d_44_7415" x="298.5" y="76" width="32" height="43" filterUnits="userSpaceOnUse" color-interpolation-filters="sRGB">
<feFlood flood-opacity="0" result="BackgroundImageFix"/>
<feColorMatrix in="SourceAlpha" type="matrix" values="0 0 0 0 0 0 0 0 0 0 0 0 0 0 0 0 0 0 127 0" result="hardAlpha"/>
<feOffset dy="1"/>
<feComposite in2="hardAlpha" operator="out"/>
<feColorMatrix type="matrix" values="0 0 0 0 0 0 0 0 0 0 0 0 0 0 0 0 0 0 0.3 0"/>
<feBlend mode="normal" in2="BackgroundImageFix" result="effect1_dropShadow_44_7415"/>
<feBlend mode="normal" in="SourceGraphic" in2="effect1_dropShadow_44_7415" result="shape"/>
</filter>
<filter id="filter18_d_44_7415" x="336.5" y="76" width="34" height="43" filterUnits="userSpaceOnUse" color-interpolation-filters="sRGB">
<feFlood flood-opacity="0" result="BackgroundImageFix"/>
<feColorMatrix in="SourceAlpha" type="matrix" values="0 0 0 0 0 0 0 0 0 0 0 0 0 0 0 0 0 0 127 0" result="hardAlpha"/>
<feOffset dy="1"/>
<feComposite in2="hardAlpha" operator="out"/>
<feColorMatrix type="matrix" values="0 0 0 0 0 0 0 0 0 0 0 0 0 0 0 0 0 0 0.3 0"/>
<feBlend mode="normal" in2="BackgroundImageFix" result="effect1_dropShadow_44_7415"/>
<feBlend mode="normal" in="SourceGraphic" in2="effect1_dropShadow_44_7415" result="shape"/>
</filter>
<filter id="filter19_d_44_7415" x="3" y="130" width="44" height="43" filterUnits="userSpaceOnUse" color-interpolation-filters="sRGB">
<feFlood flood-opacity="0" result="BackgroundImageFix"/>
<feColorMatrix in="SourceAlpha" type="matrix" values="0 0 0 0 0 0 0 0 0 0 0 0 0 0 0 0 0 0 127 0" result="hardAlpha"/>
<feOffset dy="1"/>
<feComposite in2="hardAlpha" operator="out"/>
<feColorMatrix type="matrix" values="0 0 0 0 0 0 0 0 0 0 0 0 0 0 0 0 0 0 0.3 0"/>
<feBlend mode="normal" in2="BackgroundImageFix" result="effect1_dropShadow_44_7415"/>
<feBlend mode="normal" in="SourceGraphic" in2="effect1_dropShadow_44_7415" result="shape"/>
</filter>
<filter id="filter20_d_44_7415" x="61" y="130" width="34" height="43" filterUnits="userSpaceOnUse" color-interpolation-filters="sRGB">
<feFlood flood-opacity="0" result="BackgroundImageFix"/>
<feColorMatrix in="SourceAlpha" type="matrix" values="0 0 0 0 0 0 0 0 0 0 0 0 0 0 0 0 0 0 127 0" result="hardAlpha"/>
<feOffset dy="1"/>
<feComposite in2="hardAlpha" operator="out"/>
<feColorMatrix type="matrix" values="0 0 0 0 0 0 0 0 0 0 0 0 0 0 0 0 0 0 0.3 0"/>
<feBlend mode="normal" in2="BackgroundImageFix" result="effect1_dropShadow_44_7415"/>
<feBlend mode="normal" in="SourceGraphic" in2="effect1_dropShadow_44_7415" result="shape"/>
</filter>
<filter id="filter21_d_44_7415" x="101" y="130" width="33" height="43" filterUnits="userSpaceOnUse" color-interpolation-filters="sRGB">
<feFlood flood-opacity="0" result="BackgroundImageFix"/>
<feColorMatrix in="SourceAlpha" type="matrix" values="0 0 0 0 0 0 0 0 0 0 0 0 0 0 0 0 0 0 127 0" result="hardAlpha"/>
<feOffset dy="1"/>
<feComposite in2="hardAlpha" operator="out"/>
<feColorMatrix type="matrix" values="0 0 0 0 0 0 0 0 0 0 0 0 0 0 0 0 0 0 0.3 0"/>
<feBlend mode="normal" in2="BackgroundImageFix" result="effect1_dropShadow_44_7415"/>
<feBlend mode="normal" in="SourceGraphic" in2="effect1_dropShadow_44_7415" result="shape"/>
</filter>
<filter id="filter22_d_44_7415" x="140" y="130" width="34" height="43" filterUnits="userSpaceOnUse" color-interpolation-filters="sRGB">
<feFlood flood-opacity="0" result="BackgroundImageFix"/>
<feColorMatrix in="SourceAlpha" type="matrix" values="0 0 0 0 0 0 0 0 0 0 0 0 0 0 0 0 0 0 127 0" result="hardAlpha"/>
<feOffset dy="1"/>
<feComposite in2="hardAlpha" operator="out"/>
<feColorMatrix type="matrix" values="0 0 0 0 0 0 0 0 0 0 0 0 0 0 0 0 0 0 0.3 0"/>
<feBlend mode="normal" in2="BackgroundImageFix" result="effect1_dropShadow_44_7415"/>
<feBlend mode="normal" in="SourceGraphic" in2="effect1_dropShadow_44_7415" result="shape"/>
</filter>
<filter id="filter23_d_44_7415" x="180" y="130" width="32" height="43" filterUnits="userSpaceOnUse" color-interpolation-filters="sRGB">
<feFlood flood-opacity="0" result="BackgroundImageFix"/>
<feColorMatrix in="SourceAlpha" type="matrix" values="0 0 0 0 0 0 0 0 0 0 0 0 0 0 0 0 0 0 127 0" result="hardAlpha"/>
<feOffset dy="1"/>
<feComposite in2="hardAlpha" operator="out"/>
<feColorMatrix type="matrix" values="0 0 0 0 0 0 0 0 0 0 0 0 0 0 0 0 0 0 0.3 0"/>
<feBlend mode="normal" in2="BackgroundImageFix" result="effect1_dropShadow_44_7415"/>
<feBlend mode="normal" in="SourceGraphic" in2="effect1_dropShadow_44_7415" result="shape"/>
</filter>
<filter id="filter24_d_44_7415" x="218" y="130" width="34" height="43" filterUnits="userSpaceOnUse" color-interpolation-filters="sRGB">
<feFlood flood-opacity="0" result="BackgroundImageFix"/>
<feColorMatrix in="SourceAlpha" type="matrix" values="0 0 0 0 0 0 0 0 0 0 0 0 0 0 0 0 0 0 127 0" result="hardAlpha"/>
<feOffset dy="1"/>
<feComposite in2="hardAlpha" operator="out"/>
<feColorMatrix type="matrix" values="0 0 0 0 0 0 0 0 0 0 0 0 0 0 0 0 0 0 0.3 0"/>
<feBlend mode="normal" in2="BackgroundImageFix" result="effect1_dropShadow_44_7415"/>
<feBlend mode="normal" in="SourceGraphic" in2="effect1_dropShadow_44_7415" result="shape"/>
</filter>
<filter id="filter25_d_44_7415" x="258" y="130" width="33" height="43" filterUnits="userSpaceOnUse" color-interpolation-filters="sRGB">
<feFlood flood-opacity="0" result="BackgroundImageFix"/>
<feColorMatrix in="SourceAlpha" type="matrix" values="0 0 0 0 0 0 0 0 0 0 0 0 0 0 0 0 0 0 127 0" result="hardAlpha"/>
<feOffset dy="1"/>
<feComposite in2="hardAlpha" operator="out"/>
<feColorMatrix type="matrix" values="0 0 0 0 0 0 0 0 0 0 0 0 0 0 0 0 0 0 0.3 0"/>
<feBlend mode="normal" in2="BackgroundImageFix" result="effect1_dropShadow_44_7415"/>
<feBlend mode="normal" in="SourceGraphic" in2="effect1_dropShadow_44_7415" result="shape"/>
</filter>
<filter id="filter26_d_44_7415" x="297" y="130" width="34" height="43" filterUnits="userSpaceOnUse" color-interpolation-filters="sRGB">
<feFlood flood-opacity="0" result="BackgroundImageFix"/>
<feColorMatrix in="SourceAlpha" type="matrix" values="0 0 0 0 0 0 0 0 0 0 0 0 0 0 0 0 0 0 127 0" result="hardAlpha"/>
<feOffset dy="1"/>
<feComposite in2="hardAlpha" operator="out"/>
<feColorMatrix type="matrix" values="0 0 0 0 0 0 0 0 0 0 0 0 0 0 0 0 0 0 0.3 0"/>
<feBlend mode="normal" in2="BackgroundImageFix" result="effect1_dropShadow_44_7415"/>
<feBlend mode="normal" in="SourceGraphic" in2="effect1_dropShadow_44_7415" result="shape"/>
</filter>
<filter id="filter27_d_44_7415" x="346" y="130" width="44" height="43" filterUnits="userSpaceOnUse" color-interpolation-filters="sRGB">
<feFlood flood-opacity="0" result="BackgroundImageFix"/>
<feColorMatrix in="SourceAlpha" type="matrix" values="0 0 0 0 0 0 0 0 0 0 0 0 0 0 0 0 0 0 127 0" result="hardAlpha"/>
<feOffset dy="1"/>
<feComposite in2="hardAlpha" operator="out"/>
<feColorMatrix type="matrix" values="0 0 0 0 0 0 0 0 0 0 0 0 0 0 0 0 0 0 0.3 0"/>
<feBlend mode="normal" in2="BackgroundImageFix" result="effect1_dropShadow_44_7415"/>
<feBlend mode="normal" in="SourceGraphic" in2="effect1_dropShadow_44_7415" result="shape"/>
</filter>
<filter id="filter28_d_44_7415" x="3" y="184" width="42" height="43" filterUnits="userSpaceOnUse" color-interpolation-filters="sRGB">
<feFlood flood-opacity="0" result="BackgroundImageFix"/>
<feColorMatrix in="SourceAlpha" type="matrix" values="0 0 0 0 0 0 0 0 0 0 0 0 0 0 0 0 0 0 127 0" result="hardAlpha"/>
<feOffset dy="1"/>
<feComposite in2="hardAlpha" operator="out"/>
<feColorMatrix type="matrix" values="0 0 0 0 0 0 0 0 0 0 0 0 0 0 0 0 0 0 0.3 0"/>
<feBlend mode="normal" in2="BackgroundImageFix" result="effect1_dropShadow_44_7415"/>
<feBlend mode="normal" in="SourceGraphic" in2="effect1_dropShadow_44_7415" result="shape"/>
</filter>
<filter id="filter29_d_44_7415" x="51" y="184" width="43" height="43" filterUnits="userSpaceOnUse" color-interpolation-filters="sRGB">
<feFlood flood-opacity="0" result="BackgroundImageFix"/>
<feColorMatrix in="SourceAlpha" type="matrix" values="0 0 0 0 0 0 0 0 0 0 0 0 0 0 0 0 0 0 127 0" result="hardAlpha"/>
<feOffset dy="1"/>
<feComposite in2="hardAlpha" operator="out"/>
<feColorMatrix type="matrix" values="0 0 0 0 0 0 0 0 0 0 0 0 0 0 0 0 0 0 0.3 0"/>
<feBlend mode="normal" in2="BackgroundImageFix" result="effect1_dropShadow_44_7415"/>
<feBlend mode="normal" in="SourceGraphic" in2="effect1_dropShadow_44_7415" result="shape"/>
</filter>
<filter id="filter30_d_44_7415" x="100" y="184" width="95" height="43" filterUnits="userSpaceOnUse" color-interpolation-filters="sRGB">
<feFlood flood-opacity="0" result="BackgroundImageFix"/>
<feColorMatrix in="SourceAlpha" type="matrix" values="0 0 0 0 0 0 0 0 0 0 0 0 0 0 0 0 0 0 127 0" result="hardAlpha"/>
<feOffset dy="1"/>
<feComposite in2="hardAlpha" operator="out"/>
<feColorMatrix type="matrix" values="0 0 0 0 0 0 0 0 0 0 0 0 0 0 0 0 0 0 0.3 0"/>
<feBlend mode="normal" in2="BackgroundImageFix" result="effect1_dropShadow_44_7415"/>
<feBlend mode="normal" in="SourceGraphic" in2="effect1_dropShadow_44_7415" result="shape"/>
</filter>
<filter id="filter31_d_44_7415" x="201" y="184" width="43" height="43" filterUnits="userSpaceOnUse" color-interpolation-filters="sRGB">
<feFlood flood-opacity="0" result="BackgroundImageFix"/>
<feColorMatrix in="SourceAlpha" type="matrix" values="0 0 0 0 0 0 0 0 0 0 0 0 0 0 0 0 0 0 127 0" result="hardAlpha"/>
<feOffset dy="1"/>
<feComposite in2="hardAlpha" operator="out"/>
<feColorMatrix type="matrix" values="0 0 0 0 0 0 0 0 0 0 0 0 0 0 0 0 0 0 0.3 0"/>
<feBlend mode="normal" in2="BackgroundImageFix" result="effect1_dropShadow_44_7415"/>
<feBlend mode="normal" in="SourceGraphic" in2="effect1_dropShadow_44_7415" result="shape"/>
</filter>
<filter id="filter32_d_44_7415" x="250" y="184" width="43" height="43" filterUnits="userSpaceOnUse" color-interpolation-filters="sRGB">
<feFlood flood-opacity="0" result="BackgroundImageFix"/>
<feColorMatrix in="SourceAlpha" type="matrix" values="0 0 0 0 0 0 0 0 0 0 0 0 0 0 0 0 0 0 127 0" result="hardAlpha"/>
<feOffset dy="1"/>
<feComposite in2="hardAlpha" operator="out"/>
<feColorMatrix type="matrix" values="0 0 0 0 0 0 0 0 0 0 0 0 0 0 0 0 0 0 0.3 0"/>
<feBlend mode="normal" in2="BackgroundImageFix" result="effect1_dropShadow_44_7415"/>
<feBlend mode="normal" in="SourceGraphic" in2="effect1_dropShadow_44_7415" result="shape"/>
</filter>
<filter id="filter33_d_44_7415" x="299" y="184" width="91" height="43" filterUnits="userSpaceOnUse" color-interpolation-filters="sRGB">
<feFlood flood-opacity="0" result="BackgroundImageFix"/>
<feColorMatrix in="SourceAlpha" type="matrix" values="0 0 0 0 0 0 0 0 0 0 0 0 0 0 0 0 0 0 127 0" result="hardAlpha"/>
<feOffset dy="1"/>
<feComposite in2="hardAlpha" operator="out"/>
<feColorMatrix type="matrix" values="0 0 0 0 0 0 0 0 0 0 0 0 0 0 0 0 0 0 0.3 0"/>
<feBlend mode="normal" in2="BackgroundImageFix" result="effect1_dropShadow_44_7415"/>
<feBlend mode="normal" in="SourceGraphic" in2="effect1_dropShadow_44_7415" result="shape"/>
</filter>
</defs>
</svg>
