<svg width="17" height="16" viewBox="0 0 17 16" fill="none" xmlns="http://www.w3.org/2000/svg">
<path d="M1.83331 8.00004H3.83331M3.83331 8.00004C3.83331 10.5774 5.92265 12.6667 8.49998 12.6667M3.83331 8.00004C3.83331 5.42271 5.92265 3.33337 8.49998 3.33337M13.1666 8.00004H15.1666M13.1666 8.00004C13.1666 10.5774 11.0773 12.6667 8.49998 12.6667M13.1666 8.00004C13.1666 5.42271 11.0773 3.33337 8.49998 3.33337M8.49998 1.33337V3.33337M8.49998 12.6667V14.6667M10.5 8.00004C10.5 9.10461 9.60455 10 8.49998 10C7.39541 10 6.49998 9.10461 6.49998 8.00004C6.49998 6.89547 7.39541 6.00004 8.49998 6.00004C9.60455 6.00004 10.5 6.89547 10.5 8.00004Z" stroke="#545454" stroke-linecap="round" stroke-linejoin="round"/>
</svg>
