<svg width="16" height="16" viewBox="0 0 16 16" fill="none" xmlns="http://www.w3.org/2000/svg">
<path d="M13.3332 6.66665C13.3332 9.99531 9.6405 13.462 8.4005 14.5326C8.28499 14.6195 8.14437 14.6665 7.99984 14.6665C7.85531 14.6665 7.71469 14.6195 7.59917 14.5326C6.35917 13.462 2.6665 9.99531 2.6665 6.66665C2.6665 5.25216 3.22841 3.8956 4.2286 2.89541C5.2288 1.89522 6.58535 1.33331 7.99984 1.33331C9.41433 1.33331 10.7709 1.89522 11.7711 2.89541C12.7713 3.8956 13.3332 5.25216 13.3332 6.66665Z" stroke="#545454" stroke-width="2" stroke-linecap="round" stroke-linejoin="round"/>
<path d="M7.99984 8.66665C9.10441 8.66665 9.99984 7.77122 9.99984 6.66665C9.99984 5.56208 9.10441 4.66665 7.99984 4.66665C6.89527 4.66665 5.99984 5.56208 5.99984 6.66665C5.99984 7.77122 6.89527 8.66665 7.99984 8.66665Z" stroke="#545454" stroke-width="2" stroke-linecap="round" stroke-linejoin="round"/>
</svg>
