<svg width="32" height="32" viewBox="0 0 32 32" fill="none" xmlns="http://www.w3.org/2000/svg">
<path d="M12.1199 12C12.4334 11.1089 13.0521 10.3575 13.8665 9.87885C14.6809 9.40022 15.6384 9.22526 16.5695 9.38496C17.5005 9.54466 18.345 10.0287 18.9534 10.7514C19.5617 11.4741 19.8947 12.3887 19.8932 13.3333C19.8932 16 15.8932 17.3333 15.8932 17.3333M15.9999 22.6667H16.0132M3.98925 21.7893C4.1853 22.2839 4.22895 22.8258 4.11458 23.3453L2.69458 27.732C2.64883 27.9545 2.66066 28.1849 2.72895 28.4015C2.79724 28.6181 2.91973 28.8137 3.0848 28.9697C3.24988 29.1257 3.45206 29.2369 3.67218 29.2929C3.8923 29.3488 4.12306 29.3476 4.34258 29.2893L8.89325 27.9587C9.38353 27.8614 9.89129 27.9039 10.3586 28.0813C13.2058 29.411 16.4311 29.6923 19.4654 28.8756C22.4998 28.059 25.1483 26.1969 26.9435 23.6178C28.7388 21.0388 29.5654 17.9086 29.2776 14.7794C28.9899 11.6503 27.6062 8.7233 25.3707 6.51494C23.1352 4.30657 20.1915 2.95873 17.0591 2.7092C13.9267 2.45968 10.8068 3.32452 8.24984 5.15113C5.69291 6.97774 3.86329 9.64873 3.08377 12.6929C2.30425 15.737 2.62494 18.9586 3.98925 21.7893Z" stroke="#D9D9D9" stroke-width="2" stroke-linecap="round" stroke-linejoin="round"/>
</svg>
