<svg width="393" height="305" viewBox="0 0 393 305" fill="none" xmlns="http://www.w3.org/2000/svg">
<g clip-path="url(#clip0_538_4290)">
<g clip-path="url(#clip1_538_4290)">
<rect width="393" height="305" fill="#CED2D9" fill-opacity="0.7"/>
<g filter="url(#filter1_d_538_4290)">
<rect x="135" y="167" width="123" height="46" rx="5" fill="white"/>
<path d="M196.738 198.415C200.632 198.415 202.976 194.863 202.976 189.199V189.174C202.976 183.51 200.632 179.97 196.738 179.97C192.844 179.97 190.524 183.51 190.524 189.174V189.199C190.524 194.863 192.844 198.415 196.738 198.415ZM196.738 196.499C194.211 196.499 192.734 193.691 192.734 189.199V189.174C192.734 184.682 194.211 181.899 196.738 181.899C199.265 181.899 200.766 184.682 200.766 189.174V189.199C200.766 193.691 199.265 196.499 196.738 196.499Z" fill="black"/>
</g>
<g filter="url(#filter2_d_538_4290)">
<rect x="6" y="6" width="123" height="46" rx="5" fill="white"/>
</g>
<path d="M68.2261 30H70.4233V12.3853H68.2383L63.5508 15.7544V18.0737L68.0308 14.8267H68.2261V30Z" fill="black"/>
<g filter="url(#filter3_d_538_4290)">
<rect x="135" y="6" width="123" height="46" rx="5" fill="white"/>
</g>
<path d="M183.467 45H185.014L185.537 43.291H188.022L188.545 45H190.097L187.646 37.9541H185.913L183.467 45ZM186.738 39.3604H186.826L187.685 42.1875H185.874L186.738 39.3604ZM192.994 45H196.158C197.662 45 198.594 44.2236 198.594 42.9883V42.9785C198.594 42.0752 197.916 41.377 196.983 41.3037V41.2158C197.706 41.1084 198.257 40.459 198.257 39.7168V39.707C198.257 38.623 197.442 37.9541 196.075 37.9541H192.994V45ZM195.699 39.0479C196.402 39.0479 196.807 39.3896 196.807 39.9609V39.9707C196.807 40.5518 196.373 40.8838 195.577 40.8838H194.468V39.0479H195.699ZM195.748 41.8555C196.617 41.8555 197.09 42.207 197.09 42.8613V42.8711C197.09 43.54 196.631 43.9014 195.782 43.9014H194.468V41.8555H195.748ZM204.621 45.1807C206.32 45.1807 207.526 44.1748 207.677 42.7002L207.682 42.6465H206.246L206.237 42.6855C206.08 43.4375 205.47 43.9307 204.625 43.9307C203.512 43.9307 202.824 42.9932 202.824 41.4795V41.4697C202.824 39.9561 203.512 39.0234 204.621 39.0234C205.46 39.0234 206.09 39.5605 206.242 40.3516V40.3857H207.677V40.3271C207.54 38.8379 206.29 37.7734 204.621 37.7734C202.575 37.7734 201.315 39.1846 201.315 41.4697V41.4795C201.315 43.7646 202.579 45.1807 204.621 45.1807Z" fill="black"/>
<path d="M191.671 30H203.073V28.0225H194.723V27.8271L198.727 23.689C201.913 20.4053 202.78 18.9404 202.78 16.9263V16.9019C202.78 14.0576 200.424 11.9702 197.348 11.9702C193.979 11.9702 191.562 14.2163 191.549 17.3413L191.574 17.3535L193.673 17.3657L193.686 17.3413C193.686 15.2661 195.089 13.8867 197.201 13.8867C199.276 13.8867 200.534 15.2783 200.534 17.1338V17.1582C200.534 18.6963 199.875 19.6118 197.628 22.041L191.671 28.4863V30Z" fill="black"/>
<g filter="url(#filter4_d_538_4290)">
<rect x="264" y="6" width="123" height="46" rx="5" fill="white"/>
</g>
<path d="M313.966 45H316.739C318.848 45 320.045 43.7109 320.045 41.4355V41.4258C320.045 39.2188 318.834 37.9541 316.739 37.9541H313.966V45ZM315.44 43.7842V39.1699H316.505C317.784 39.1699 318.541 40 318.541 41.4502V41.46C318.541 42.9639 317.808 43.7842 316.505 43.7842H315.44ZM323.146 45H327.814V43.7842H324.621V42.002H327.633V40.8691H324.621V39.1699H327.814V37.9541H323.146V45ZM331.067 45H332.541V42.2266H335.408V41.0596H332.541V39.1699H335.681V37.9541H331.067V45Z" fill="black"/>
<path d="M325.872 30.293C329.4 30.293 331.988 28.1201 331.988 25.1782V25.1538C331.988 22.6514 330.242 21.0522 327.679 20.8325V20.7837C329.876 20.3198 331.414 18.8306 331.414 16.6577V16.6333C331.414 13.96 329.205 12.0923 325.848 12.0923C322.552 12.0923 320.281 14.0088 320 16.8774L319.988 16.9995H322.1L322.112 16.8774C322.295 15.0952 323.772 13.9966 325.848 13.9966C327.996 13.9966 329.205 15.0586 329.205 16.9019V16.9263C329.205 18.6841 327.74 19.978 325.64 19.978H323.528V21.8335H325.738C328.204 21.8335 329.754 23.042 329.754 25.2026V25.2271C329.754 27.0947 328.179 28.3887 325.872 28.3887C323.528 28.3887 321.929 27.1924 321.758 25.459L321.746 25.3369H319.634L319.646 25.4834C319.878 28.2666 322.234 30.293 325.872 30.293Z" fill="black"/>
<g filter="url(#filter5_d_538_4290)">
<rect x="6" y="59" width="123" height="47" rx="5" fill="white"/>
</g>
<path d="M59.5594 99.1807C61.4832 99.1807 62.6844 98.0088 62.6844 96.1387V95.2451H59.7254V96.3193H61.2488L61.2439 96.4512C61.2146 97.3398 60.5506 97.9307 59.5838 97.9307C58.4217 97.9307 57.6844 96.9883 57.6844 95.46V95.4502C57.6844 93.9512 58.3875 93.0234 59.5252 93.0234C60.3504 93.0234 60.951 93.4385 61.1512 94.1367L61.1609 94.1855H62.6258L62.616 94.1367C62.4061 92.7305 61.1902 91.7734 59.5252 91.7734C57.4744 91.7734 56.1805 93.2041 56.1805 95.4648V95.4746C56.1805 97.7695 57.4646 99.1807 59.5594 99.1807ZM65.8004 99H67.275V96.0312H70.4488V99H71.9234V91.9541H70.4488V94.8154H67.275V91.9541H65.8004V99ZM75.3324 99H76.807V91.9541H75.3324V99Z" fill="black"/>
<path d="M69.7153 84H71.8638V80.3501H74.3662V78.3848H71.8638V66.3853H68.6777C66.2119 70.0596 63.5142 74.3564 61.1338 78.3481V80.3501H69.7153V84ZM63.3799 78.397V78.2505C65.2964 75.0156 67.6035 71.3779 69.5811 68.4238H69.7275V78.397H63.3799Z" fill="black"/>
<g filter="url(#filter6_d_538_4290)">
<rect x="135" y="59" width="123" height="47" rx="5" fill="white"/>
</g>
<path d="M187.168 99.1807C188.691 99.1807 189.575 98.3164 189.575 96.832V91.9541H188.1V96.8223C188.1 97.5303 187.773 97.9062 187.148 97.9062C186.572 97.9062 186.25 97.5254 186.221 96.9834V96.9541H184.79V96.9932C184.829 98.3164 185.713 99.1807 187.168 99.1807ZM192.989 99H194.463V96.8467L195.162 96.0068L197.208 99H198.975L196.226 95.04L198.795 91.9541H197.154L194.551 95.1182H194.463V91.9541H192.989V99ZM201.788 99H206.398V97.7842H203.263V91.9541H201.788V99Z" fill="black"/>
<path d="M197.274 84.415C200.851 84.415 203.402 81.937 203.402 78.3848V78.3604C203.402 74.9546 201.022 72.4766 197.714 72.4766C196.115 72.4766 194.735 73.1235 193.954 74.3076H193.759L194.357 68.3506H202.426V66.3853H192.624L191.696 76.5049H193.6C193.82 76.0898 194.101 75.748 194.406 75.4551C195.163 74.7349 196.164 74.3809 197.335 74.3809C199.618 74.3809 201.254 76.0532 201.254 78.397V78.4214C201.254 80.8018 199.643 82.4741 197.299 82.4741C195.236 82.4741 193.71 81.1313 193.502 79.4468L193.49 79.3491H191.378L191.391 79.4834C191.647 82.3032 193.991 84.415 197.274 84.415Z" fill="black"/>
<g filter="url(#filter7_d_538_4290)">
<rect x="264" y="59" width="123" height="47" rx="5" fill="white"/>
</g>
<path d="M311.49 99H312.804V94.2051H312.901L314.708 99H315.631L317.437 94.2051H317.535V99H318.848V91.9541H317.159L315.216 97.1104H315.128L313.179 91.9541H311.49V99ZM322.262 99H323.673V94.4932H323.752L327.013 99H328.234V91.9541H326.823V96.4414H326.745L323.493 91.9541H322.262V99ZM334.729 99.1807C336.809 99.1807 338.118 97.7549 338.118 95.4795V95.4697C338.118 93.1943 336.804 91.7734 334.729 91.7734C332.654 91.7734 331.335 93.1895 331.335 95.4697V95.4795C331.335 97.7549 332.634 99.1807 334.729 99.1807ZM334.729 97.9307C333.567 97.9307 332.839 96.9688 332.839 95.4795V95.4697C332.839 93.9756 333.581 93.0234 334.729 93.0234C335.871 93.0234 336.614 93.9756 336.614 95.4697V95.4795C336.614 96.9688 335.876 97.9307 334.729 97.9307Z" fill="black"/>
<path d="M325.982 84.415C329.534 84.415 332.146 81.8638 332.146 78.3481V78.3237C332.146 74.9424 329.681 72.4277 326.373 72.4277C323.992 72.4277 322.332 73.7095 321.685 75.1499H321.453C321.502 71.2925 322.784 67.9355 326.104 67.9355C327.886 67.9355 329.119 68.8511 329.656 70.3281L329.705 70.4624H331.915L331.878 70.3037C331.28 67.7036 329.083 65.9702 326.128 65.9702C321.856 65.9702 319.354 69.4858 319.354 75.4917V75.5161C319.354 82.1445 322.759 84.415 325.982 84.415ZM321.978 78.3237V78.3115C321.978 76.0166 323.711 74.3442 325.994 74.3442C328.277 74.3442 329.937 76.0288 329.937 78.3726V78.397C329.937 80.6797 328.167 82.4741 325.958 82.4741C323.724 82.4741 321.978 80.6431 321.978 78.3237Z" fill="black"/>
<g filter="url(#filter8_d_538_4290)">
<rect x="6" y="113" width="123" height="47" rx="5" fill="white"/>
</g>
<path d="M50.7992 153H52.2738V150.778H53.7045C55.1889 150.778 56.1801 149.821 56.1801 148.371V148.361C56.1801 146.911 55.1889 145.954 53.7045 145.954H50.7992V153ZM53.3432 147.121C54.1879 147.121 54.6859 147.565 54.6859 148.366V148.376C54.6859 149.177 54.1879 149.626 53.3432 149.626H52.2738V147.121H53.3432ZM62.3186 153.181C62.7727 153.181 63.1926 153.112 63.5686 152.98L64.1057 153.698H65.4777L64.5305 152.434C65.2824 151.799 65.7072 150.778 65.7072 149.479V149.47C65.7072 147.194 64.3937 145.773 62.3186 145.773C60.2434 145.773 58.925 147.189 58.925 149.47V149.479C58.925 151.755 60.2238 153.181 62.3186 153.181ZM62.3186 151.931C61.1564 151.931 60.4289 150.969 60.4289 149.479V149.47C60.4289 147.976 61.1711 147.023 62.3186 147.023C63.4611 147.023 64.2033 147.976 64.2033 149.47V149.479C64.2033 150.241 64.008 150.861 63.6662 151.291L63.2121 150.681H61.84L62.7434 151.882C62.6066 151.916 62.465 151.931 62.3186 151.931ZM68.8086 153H70.2832V150.422H71.4893L72.8027 153H74.4727L72.9883 150.202C73.7939 149.885 74.2627 149.108 74.2627 148.205V148.195C74.2627 146.809 73.3447 145.954 71.7432 145.954H68.8086V153ZM70.2832 149.348V147.106H71.5625C72.2998 147.106 72.7539 147.546 72.7539 148.225V148.234C72.7539 148.928 72.3193 149.348 71.582 149.348H70.2832ZM79.9715 153.181C81.7293 153.181 82.8133 152.297 82.8133 150.9V150.896C82.8133 149.797 82.1639 149.201 80.6746 148.894L79.9275 148.742C79.0975 148.571 78.7557 148.298 78.7557 147.839V147.834C78.7557 147.307 79.2391 146.975 79.9666 146.97C80.7088 146.97 81.1971 147.321 81.2801 147.824L81.2898 147.883H82.6766L82.6717 147.819C82.5789 146.643 81.6121 145.773 79.9666 145.773C78.4041 145.773 77.2811 146.638 77.2811 147.946V147.951C77.2811 149.021 77.9109 149.704 79.3758 150.002L80.118 150.153C80.992 150.334 81.3387 150.593 81.3387 151.057V151.062C81.3387 151.604 80.7967 151.979 80.0105 151.979C79.1853 151.979 78.6141 151.623 78.5603 151.096L78.5555 151.047H77.1346L77.1395 151.125C77.2225 152.375 78.2869 153.181 79.9715 153.181Z" fill="black"/>
<path d="M63.3311 138H65.6382L73.4751 122.424V120.385H61.8174V122.351H71.2412V122.521L63.3311 138Z" fill="black"/>
<g filter="url(#filter9_d_538_4290)">
<rect x="135" y="113" width="123" height="47" rx="5" fill="white"/>
</g>
<path d="M185.801 153H187.275V147.17H189.389V145.954H183.686V147.17H185.801V153ZM195.342 153.181C197.159 153.181 198.292 152.131 198.292 150.568V145.954H196.817V150.437C196.817 151.35 196.29 151.931 195.342 151.931C194.395 151.931 193.863 151.35 193.863 150.437V145.954H192.388V150.568C192.388 152.136 193.536 153.181 195.342 153.181ZM203.546 153H205.363L207.711 145.954H206.051L204.498 151.359H204.411L202.853 145.954H201.198L203.546 153Z" fill="black"/>
<path d="M196.75 138.293C200.485 138.293 203.146 136.193 203.146 133.239V133.215C203.146 131.042 201.621 129.235 199.362 128.71V128.662C201.291 128.063 202.512 126.599 202.512 124.743V124.719C202.512 122.058 200.083 120.092 196.75 120.092C193.417 120.092 190.988 122.058 190.988 124.719V124.743C190.988 126.599 192.209 128.063 194.138 128.662V128.71C191.879 129.235 190.354 131.042 190.354 133.215V133.239C190.354 136.193 193.015 138.293 196.75 138.293ZM196.75 127.844C194.626 127.844 193.173 126.635 193.173 124.926V124.902C193.173 123.193 194.626 121.984 196.75 121.984C198.874 121.984 200.327 123.193 200.327 124.902V124.926C200.327 126.635 198.874 127.844 196.75 127.844ZM196.75 136.376C194.321 136.376 192.587 135.009 192.587 133.105V133.081C192.587 131.152 194.309 129.772 196.75 129.772C199.191 129.772 200.913 131.152 200.913 133.081V133.105C200.913 135.009 199.179 136.376 196.75 136.376Z" fill="black"/>
<g filter="url(#filter10_d_538_4290)">
<rect x="264" y="113" width="123" height="47" rx="5" fill="white"/>
</g>
<path d="M308.78 153H310.171L311.49 148.254H311.568L312.901 153H314.283L316.153 145.954H314.629L313.54 150.988H313.462L312.154 145.954H310.909L309.624 150.988H309.546L308.448 145.954H306.914L308.78 153ZM318.712 153H320.304L321.842 150.529H321.891L323.434 153H325.113L322.838 149.479V149.46L325.148 145.954H323.497L322.013 148.493H321.954L320.46 145.954H318.722L320.948 149.436V149.45L318.712 153ZM330.08 153H331.555V150.368L334.011 145.954H332.414L330.866 148.918H330.778L329.226 145.954H327.629L330.08 150.368V153ZM336.717 153H342.156V151.784H338.523V151.696L342.058 146.911V145.954H336.8V147.17H340.262V147.258L336.717 152.038V153Z" fill="black"/>
<path d="M325.518 119.97C321.966 119.97 319.354 122.521 319.354 126.037V126.062C319.354 129.443 321.819 131.958 325.127 131.958C327.508 131.958 329.168 130.676 329.815 129.235H330.047C329.998 133.093 328.716 136.45 325.396 136.45C323.614 136.45 322.381 135.534 321.844 134.057L321.795 133.923H319.585L319.622 134.082C320.22 136.682 322.417 138.415 325.372 138.415C329.644 138.415 332.146 134.899 332.146 128.894V128.869C332.146 122.241 328.741 119.97 325.518 119.97ZM325.506 130.041C323.223 130.041 321.563 128.356 321.563 126.013V125.988C321.563 123.706 323.333 121.911 325.542 121.911C327.776 121.911 329.522 123.742 329.522 126.062V126.074C329.522 128.369 327.789 130.041 325.506 130.041Z" fill="black"/>
<path d="M327.214 186.525C326.922 186.232 326.922 185.757 327.214 185.464C327.507 185.172 327.982 185.172 328.275 185.464L330.75 187.939L333.225 185.464C333.518 185.172 333.993 185.172 334.286 185.464C334.578 185.757 334.578 186.232 334.286 186.525L331.811 189L334.286 191.475C334.578 191.768 334.578 192.243 334.286 192.536C333.993 192.828 333.518 192.828 333.225 192.536L330.75 190.061L328.275 192.536C327.982 192.828 327.507 192.828 327.214 192.536C326.922 192.243 326.922 191.768 327.214 191.475L329.689 189L327.214 186.525Z" fill="black"/>
<path fill-rule="evenodd" clip-rule="evenodd" d="M324.121 181.379L316.5 189L324.121 196.621C324.684 197.184 325.447 197.5 326.243 197.5H336.5C338.157 197.5 339.5 196.157 339.5 194.5V183.5C339.5 181.843 338.157 180.5 336.5 180.5H326.243C325.447 180.5 324.684 180.816 324.121 181.379ZM336.5 196.2H326.243C325.792 196.2 325.359 196.021 325.041 195.702L318.339 189L325.041 182.298C325.359 181.979 325.792 181.8 326.243 181.8H336.5C337.439 181.8 338.2 182.561 338.2 183.5V194.5C338.2 195.439 337.439 196.2 336.5 196.2Z" fill="black"/>
<path d="M80 184H83V181H84V184H88V185H84V188H88V189H84V194H83V189H80V194H79V189H75V188H79V185H75V184H79V181H80V184ZM46 180V186H52V187H46V193H45V187H39V186H45V180H46ZM67.1826 181.12L64.3652 186H70V187H64.3662L67.1826 191.879L66.3174 192.379L63.5 187.5L60.6826 192.379L59.8174 191.879L62.6338 187H57V186H62.6348L59.8174 181.12L60.6826 180.62L63.5 185.5L66.3174 180.62L67.1826 181.12ZM80 188H83V185H80V188Z" fill="black"/>
<rect x="129" y="292" width="135" height="5" rx="2.5" fill="black"/>
</g>
</g>
<defs>
<filter id="filter1_d_538_4290" x="135" y="167" width="123" height="47" filterUnits="userSpaceOnUse" color-interpolation-filters="sRGB">
<feFlood flood-opacity="0" result="BackgroundImageFix"/>
<feColorMatrix in="SourceAlpha" type="matrix" values="0 0 0 0 0 0 0 0 0 0 0 0 0 0 0 0 0 0 127 0" result="hardAlpha"/>
<feOffset dy="1"/>
<feColorMatrix type="matrix" values="0 0 0 0 0 0 0 0 0 0 0 0 0 0 0 0 0 0 0.35 0"/>
<feBlend mode="normal" in2="BackgroundImageFix" result="effect1_dropShadow_538_4290"/>
<feBlend mode="normal" in="SourceGraphic" in2="effect1_dropShadow_538_4290" result="shape"/>
</filter>
<filter id="filter2_d_538_4290" x="6" y="6" width="123" height="47" filterUnits="userSpaceOnUse" color-interpolation-filters="sRGB">
<feFlood flood-opacity="0" result="BackgroundImageFix"/>
<feColorMatrix in="SourceAlpha" type="matrix" values="0 0 0 0 0 0 0 0 0 0 0 0 0 0 0 0 0 0 127 0" result="hardAlpha"/>
<feOffset dy="1"/>
<feColorMatrix type="matrix" values="0 0 0 0 0 0 0 0 0 0 0 0 0 0 0 0 0 0 0.3 0"/>
<feBlend mode="normal" in2="BackgroundImageFix" result="effect1_dropShadow_538_4290"/>
<feBlend mode="normal" in="SourceGraphic" in2="effect1_dropShadow_538_4290" result="shape"/>
</filter>
<filter id="filter3_d_538_4290" x="135" y="6" width="123" height="47" filterUnits="userSpaceOnUse" color-interpolation-filters="sRGB">
<feFlood flood-opacity="0" result="BackgroundImageFix"/>
<feColorMatrix in="SourceAlpha" type="matrix" values="0 0 0 0 0 0 0 0 0 0 0 0 0 0 0 0 0 0 127 0" result="hardAlpha"/>
<feOffset dy="1"/>
<feColorMatrix type="matrix" values="0 0 0 0 0 0 0 0 0 0 0 0 0 0 0 0 0 0 0.3 0"/>
<feBlend mode="normal" in2="BackgroundImageFix" result="effect1_dropShadow_538_4290"/>
<feBlend mode="normal" in="SourceGraphic" in2="effect1_dropShadow_538_4290" result="shape"/>
</filter>
<filter id="filter4_d_538_4290" x="264" y="6" width="123" height="47" filterUnits="userSpaceOnUse" color-interpolation-filters="sRGB">
<feFlood flood-opacity="0" result="BackgroundImageFix"/>
<feColorMatrix in="SourceAlpha" type="matrix" values="0 0 0 0 0 0 0 0 0 0 0 0 0 0 0 0 0 0 127 0" result="hardAlpha"/>
<feOffset dy="1"/>
<feColorMatrix type="matrix" values="0 0 0 0 0 0 0 0 0 0 0 0 0 0 0 0 0 0 0.3 0"/>
<feBlend mode="normal" in2="BackgroundImageFix" result="effect1_dropShadow_538_4290"/>
<feBlend mode="normal" in="SourceGraphic" in2="effect1_dropShadow_538_4290" result="shape"/>
</filter>
<filter id="filter5_d_538_4290" x="6" y="59" width="123" height="48" filterUnits="userSpaceOnUse" color-interpolation-filters="sRGB">
<feFlood flood-opacity="0" result="BackgroundImageFix"/>
<feColorMatrix in="SourceAlpha" type="matrix" values="0 0 0 0 0 0 0 0 0 0 0 0 0 0 0 0 0 0 127 0" result="hardAlpha"/>
<feOffset dy="1"/>
<feColorMatrix type="matrix" values="0 0 0 0 0 0 0 0 0 0 0 0 0 0 0 0 0 0 0.3 0"/>
<feBlend mode="normal" in2="BackgroundImageFix" result="effect1_dropShadow_538_4290"/>
<feBlend mode="normal" in="SourceGraphic" in2="effect1_dropShadow_538_4290" result="shape"/>
</filter>
<filter id="filter6_d_538_4290" x="135" y="59" width="123" height="48" filterUnits="userSpaceOnUse" color-interpolation-filters="sRGB">
<feFlood flood-opacity="0" result="BackgroundImageFix"/>
<feColorMatrix in="SourceAlpha" type="matrix" values="0 0 0 0 0 0 0 0 0 0 0 0 0 0 0 0 0 0 127 0" result="hardAlpha"/>
<feOffset dy="1"/>
<feColorMatrix type="matrix" values="0 0 0 0 0 0 0 0 0 0 0 0 0 0 0 0 0 0 0.3 0"/>
<feBlend mode="normal" in2="BackgroundImageFix" result="effect1_dropShadow_538_4290"/>
<feBlend mode="normal" in="SourceGraphic" in2="effect1_dropShadow_538_4290" result="shape"/>
</filter>
<filter id="filter7_d_538_4290" x="264" y="59" width="123" height="48" filterUnits="userSpaceOnUse" color-interpolation-filters="sRGB">
<feFlood flood-opacity="0" result="BackgroundImageFix"/>
<feColorMatrix in="SourceAlpha" type="matrix" values="0 0 0 0 0 0 0 0 0 0 0 0 0 0 0 0 0 0 127 0" result="hardAlpha"/>
<feOffset dy="1"/>
<feColorMatrix type="matrix" values="0 0 0 0 0 0 0 0 0 0 0 0 0 0 0 0 0 0 0.3 0"/>
<feBlend mode="normal" in2="BackgroundImageFix" result="effect1_dropShadow_538_4290"/>
<feBlend mode="normal" in="SourceGraphic" in2="effect1_dropShadow_538_4290" result="shape"/>
</filter>
<filter id="filter8_d_538_4290" x="6" y="113" width="123" height="48" filterUnits="userSpaceOnUse" color-interpolation-filters="sRGB">
<feFlood flood-opacity="0" result="BackgroundImageFix"/>
<feColorMatrix in="SourceAlpha" type="matrix" values="0 0 0 0 0 0 0 0 0 0 0 0 0 0 0 0 0 0 127 0" result="hardAlpha"/>
<feOffset dy="1"/>
<feColorMatrix type="matrix" values="0 0 0 0 0 0 0 0 0 0 0 0 0 0 0 0 0 0 0.3 0"/>
<feBlend mode="normal" in2="BackgroundImageFix" result="effect1_dropShadow_538_4290"/>
<feBlend mode="normal" in="SourceGraphic" in2="effect1_dropShadow_538_4290" result="shape"/>
</filter>
<filter id="filter9_d_538_4290" x="135" y="113" width="123" height="48" filterUnits="userSpaceOnUse" color-interpolation-filters="sRGB">
<feFlood flood-opacity="0" result="BackgroundImageFix"/>
<feColorMatrix in="SourceAlpha" type="matrix" values="0 0 0 0 0 0 0 0 0 0 0 0 0 0 0 0 0 0 127 0" result="hardAlpha"/>
<feOffset dy="1"/>
<feColorMatrix type="matrix" values="0 0 0 0 0 0 0 0 0 0 0 0 0 0 0 0 0 0 0.3 0"/>
<feBlend mode="normal" in2="BackgroundImageFix" result="effect1_dropShadow_538_4290"/>
<feBlend mode="normal" in="SourceGraphic" in2="effect1_dropShadow_538_4290" result="shape"/>
</filter>
<filter id="filter10_d_538_4290" x="264" y="113" width="123" height="48" filterUnits="userSpaceOnUse" color-interpolation-filters="sRGB">
<feFlood flood-opacity="0" result="BackgroundImageFix"/>
<feColorMatrix in="SourceAlpha" type="matrix" values="0 0 0 0 0 0 0 0 0 0 0 0 0 0 0 0 0 0 127 0" result="hardAlpha"/>
<feOffset dy="1"/>
<feColorMatrix type="matrix" values="0 0 0 0 0 0 0 0 0 0 0 0 0 0 0 0 0 0 0.3 0"/>
<feBlend mode="normal" in2="BackgroundImageFix" result="effect1_dropShadow_538_4290"/>
<feBlend mode="normal" in="SourceGraphic" in2="effect1_dropShadow_538_4290" result="shape"/>
</filter>
<clipPath id="clip0_538_4290">
<rect width="393" height="305" fill="white"/>
</clipPath>
<clipPath id="clip1_538_4290">
<rect width="393" height="305" fill="white"/>
</clipPath>
</defs>
</svg>
