<svg width="24" height="23" viewBox="0 0 24 23" fill="none" xmlns="http://www.w3.org/2000/svg">
<path d="M10.5 21.5C5.25329 21.5 1 17.0228 1 11.5C1 5.97715 5.25329 1.5 10.5 1.5C15.7467 1.5 20 5.97715 20 11.5C20 17.0228 15.7467 21.5 10.5 21.5Z" stroke="#CCCCCC" stroke-width="2" stroke-linecap="round" stroke-linejoin="round"/>
<path d="M13 8.3C12.3637 7.78368 11.5695 7.5013 10.75 7.5C8.679 7.5 7 9.29 7 11.5C7 13.71 8.679 15.5 10.75 15.5C11.594 15.5 12.373 15.202 13 14.7" stroke="#CCCCCC" stroke-width="2" stroke-linecap="round" stroke-linejoin="round"/>
<path d="M10 1.5C14.333 1.5 23 2.5 23 11.5C23 20.5 14.333 21.5 10 21.5" stroke="#CCCCCC" stroke-width="2"/>
</svg>
