<svg width="32" height="32" viewBox="0 0 32 32" fill="none" xmlns="http://www.w3.org/2000/svg">
<path d="M6.66675 13.3334H25.3334M20.0001 9.33335V17.3334M6.66675 8.00002C6.66675 6.58553 7.22865 5.22898 8.22884 4.22878C9.22904 3.22859 10.5856 2.66669 12.0001 2.66669H20.0001C21.4146 2.66669 22.7711 3.22859 23.7713 4.22878C24.7715 5.22898 25.3334 6.58553 25.3334 8.00002V26.6667C25.3334 27.3739 25.0525 28.0522 24.5524 28.5523C24.0523 29.0524 23.374 29.3334 22.6667 29.3334H9.33341C8.62617 29.3334 7.94789 29.0524 7.4478 28.5523C6.9477 28.0522 6.66675 27.3739 6.66675 26.6667V8.00002Z" stroke="#D9D9D9" stroke-width="2" stroke-linecap="round" stroke-linejoin="round"/>
</svg>
