<svg width="32" height="32" viewBox="0 0 32 32" fill="none" xmlns="http://www.w3.org/2000/svg">
<path d="M9.33333 28H22.6667M15.1733 16C14.3658 16.0075 13.5853 15.7094 12.9884 15.1656C12.3914 14.6217 12.0222 13.8722 11.9547 13.0675C11.8872 12.2628 12.1265 11.4623 12.6245 10.8266C13.1225 10.1909 13.8425 9.76704 14.64 9.63998C14.5123 9.07495 14.5404 8.48586 14.7213 7.93554C14.9021 7.38522 15.229 6.89432 15.667 6.51519C16.1049 6.13607 16.6376 5.88294 17.2082 5.78281C17.7787 5.68268 18.3658 5.73931 18.9067 5.94665C19.1435 5.5738 19.455 5.25402 19.8215 5.00744C20.188 4.76087 20.6015 4.59284 21.0361 4.51394C21.4707 4.43503 21.917 4.44696 22.3468 4.54896C22.7765 4.65097 23.1805 4.84085 23.5333 5.10665C24.1488 4.62294 24.9201 4.38159 25.7015 4.42824C26.4828 4.47489 27.22 4.80632 27.7735 5.35981C28.327 5.9133 28.6584 6.65047 28.7051 7.43183C28.7517 8.2132 28.5104 8.98456 28.0267 9.59998C28.3277 9.99989 28.5308 10.4648 28.6195 10.9575C28.7082 11.4501 28.6801 11.9567 28.5375 12.4365C28.3948 12.9163 28.1416 13.356 27.7982 13.7202C27.4547 14.0843 27.0306 14.3628 26.56 14.5333C26.6817 15.0132 26.6953 15.5141 26.6 16M17.3333 16L22.6667 10.6666M14.5333 9.66665C13.802 8.887 12.8527 8.34576 11.8093 8.11348C10.7659 7.88119 9.67666 7.96862 8.68364 8.36439C7.69063 8.76016 6.83987 9.4459 6.24226 10.3322C5.64465 11.2185 5.32792 12.2643 5.33333 13.3333C5.33333 14.3066 5.6 15.2133 6.05333 16M16 28C19.1826 28 22.2348 26.7357 24.4853 24.4853C26.7357 22.2348 28 19.1826 28 16H4C4 19.1826 5.26428 22.2348 7.51472 24.4853C9.76515 26.7357 12.8174 28 16 28Z" stroke="#D9D9D9" stroke-width="2" stroke-linecap="round" stroke-linejoin="round"/>
</svg>
