<svg width="40" height="40" viewBox="0 0 40 40" fill="none" xmlns="http://www.w3.org/2000/svg">
<g clip-path="url(#clip0_563_7487)">
<path d="M17.5465 19.789H24.7725C25.1415 19.789 25.4795 19.58 25.6435 19.248L33.2445 3.903C33.5645 3.257 33.0945 2.5 32.3735 2.5H25.1475C24.7785 2.5 24.4405 2.709 24.2765 3.041L16.6755 18.386C16.3555 19.032 16.8255 19.789 17.5465 19.789Z" fill="#1E6EF4"/>
<path d="M22.4526 19.789H15.2266C14.8576 19.789 14.5196 19.58 14.3556 19.248L6.75458 3.903C6.43458 3.257 6.90458 2.5 7.62558 2.5H14.8516C15.2206 2.5 15.5586 2.709 15.7226 3.041L23.3236 18.386C23.6436 19.032 23.1736 19.789 22.4526 19.789Z" fill="#4592FB"/>
<path d="M19.9999 37.5C27.247 37.5 33.1219 31.6251 33.1219 24.378C33.1219 17.1309 27.247 11.256 19.9999 11.256C12.7528 11.256 6.87793 17.1309 6.87793 24.378C6.87793 31.6251 12.7528 37.5 19.9999 37.5Z" fill="#8595AA"/>
<path d="M19.9999 34.875C25.7973 34.875 30.4969 30.1753 30.4969 24.378C30.4969 18.5807 25.7973 13.881 19.9999 13.881C14.2026 13.881 9.50293 18.5807 9.50293 24.378C9.50293 30.1753 14.2026 34.875 19.9999 34.875Z" fill="#ABB7C7"/>
<path d="M19.9929 18.131C22.8079 18.131 24.1149 19.718 24.1149 21.787C24.1149 23.373 23.2279 24.447 21.9989 25.629L19.6349 27.885H24.1619V29.969H16.1809V28.428L20.0549 24.586C21.2839 23.372 21.5489 22.782 21.5489 21.957C21.5489 20.806 20.8949 20.229 19.9769 20.229C19.0439 20.229 18.4359 20.945 18.4359 21.957L15.8379 21.941C15.9009 19.795 17.6269 18.13 19.9929 18.13V18.131Z" fill="white"/>
</g>
<defs>
<clipPath id="clip0_563_7487">
<rect width="40" height="40" fill="white"/>
</clipPath>
</defs>
</svg>
