<svg width="16" height="16" viewBox="0 0 16 16" fill="none" xmlns="http://www.w3.org/2000/svg">
<path d="M9.9998 14V10.6666C9.9998 10.4898 9.92957 10.3203 9.80454 10.1952C9.67952 10.0702 9.50995 9.99998 9.33314 9.99998H6.66647C6.48966 9.99998 6.32009 10.0702 6.19507 10.1952C6.07004 10.3203 5.99981 10.4898 5.99981 10.6666V14M11.8491 6.87331C11.7102 6.74027 11.5252 6.66601 11.3328 6.66601C11.1404 6.66601 10.9554 6.74027 10.8165 6.87331C10.5065 7.16899 10.0945 7.33395 9.66614 7.33395C9.23774 7.33395 8.8258 7.16899 8.51581 6.87331C8.37686 6.74047 8.19204 6.66633 7.99981 6.66633C7.80757 6.66633 7.62275 6.74047 7.4838 6.87331C7.17378 7.16919 6.76169 7.33427 6.33314 7.33427C5.90458 7.33427 5.4925 7.16919 5.18247 6.87331C5.0435 6.74027 4.85853 6.66601 4.66614 6.66601C4.47375 6.66601 4.28878 6.74027 4.14981 6.87331C3.85037 7.15906 3.45532 7.32316 3.04156 7.33368C2.62779 7.3442 2.22492 7.20039 1.91134 6.93023C1.59777 6.66008 1.39594 6.28291 1.34513 5.87214C1.29432 5.46137 1.39817 5.0464 1.63647 4.70798L3.56247 1.91865C3.68468 1.73832 3.8492 1.59068 4.04166 1.48864C4.23411 1.3866 4.44864 1.33327 4.66647 1.33331H11.3331C11.5503 1.33323 11.7643 1.38621 11.9563 1.48764C12.1484 1.58907 12.3127 1.73588 12.4351 1.91531L14.3651 4.70998C14.6035 5.04866 14.7072 5.46396 14.6561 5.87494C14.605 6.28592 14.4027 6.66314 14.0886 6.93311C13.7745 7.20307 13.3712 7.34643 12.9572 7.33525C12.5432 7.32408 12.1482 7.15916 11.8491 6.87265M2.66647 7.29998V12.6666C2.66647 13.0203 2.80695 13.3594 3.057 13.6095C3.30704 13.8595 3.64618 14 3.99981 14H11.9998C12.3534 14 12.6926 13.8595 12.9426 13.6095C13.1927 13.3594 13.3331 13.0203 13.3331 12.6666V7.29998" stroke="#545454" stroke-width="2" stroke-linecap="round" stroke-linejoin="round"/>
</svg>
