<svg width="16" height="17" viewBox="0 0 16 17" fill="none" xmlns="http://www.w3.org/2000/svg">
<path d="M7.99995 6.49999V9.16665M7.99995 11.8333H8.00662M14.4866 12.5L9.15329 3.16665C9.037 2.96146 8.86836 2.79078 8.66457 2.67203C8.46078 2.55329 8.22915 2.49072 7.99329 2.49072C7.75743 2.49072 7.52579 2.55329 7.322 2.67203C7.11822 2.79078 6.94958 2.96146 6.83329 3.16665L1.49995 12.5C1.38241 12.7036 1.32077 12.9346 1.32129 13.1697C1.32181 13.4047 1.38447 13.6355 1.50292 13.8385C1.62136 14.0416 1.79138 14.2097 1.99575 14.3259C2.20011 14.442 2.43156 14.5021 2.66662 14.5H13.3333C13.5672 14.4997 13.797 14.438 13.9995 14.3208C14.202 14.2037 14.3701 14.0354 14.487 13.8327C14.6038 13.6301 14.6653 13.4002 14.6653 13.1663C14.6652 12.9324 14.6036 12.7026 14.4866 12.5Z" stroke="#DC3F5C" stroke-linecap="round" stroke-linejoin="round"/>
</svg>
