<svg width="32" height="32" viewBox="0 0 32 32" fill="none" xmlns="http://www.w3.org/2000/svg">
<g clip-path="url(#clip0_545_5154)">
<path d="M16.0002 1.1264C17.8874 1.1264 17.8514 1.8176 19.1226 1.8848C20.3938 1.9528 21.0586 1.5528 21.917 1.6792C22.5138 1.7672 22.9626 2.0336 23.273 2.2952C23.6122 2.5816 23.6682 3.08 23.3978 3.432L20.441 7.2736C20.1778 7.5864 20.2098 8.0496 20.5186 8.3168C25.1202 12.3032 30.8002 17.0976 30.8002 21.4024C30.8002 28.636 24.8626 30.8744 16.0002 30.8744C7.1378 30.8744 1.2002 28.636 1.2002 21.4024C1.2002 17.0984 6.8802 12.3032 11.4818 8.3168C11.7906 8.0496 11.8226 7.5856 11.5594 7.2736L8.6026 3.432C8.3322 3.08 8.3882 2.5816 8.7274 2.2952C9.0378 2.0336 9.4866 1.7672 10.0834 1.6792C10.9418 1.5528 11.6074 1.9528 12.8778 1.8848C14.149 1.8168 14.113 1.1264 16.0002 1.1264Z" fill="#FFC522"/>
<path d="M16.0667 9.108C14.5139 9.108 12.9579 8.9624 11.4395 8.6728C10.9555 8.58 10.6387 8.1128 10.7307 7.6288C10.8235 7.1448 11.2915 6.8256 11.7747 6.9192C14.5899 7.456 17.5491 7.4584 20.3323 6.9192C20.8155 6.8224 21.2843 7.1416 21.3779 7.6256C21.4715 8.1096 21.1547 8.5776 20.6707 8.6712C19.1691 8.9616 17.6203 9.1072 16.0667 9.1072V9.108Z" fill="#99452E"/>
<path d="M16.1919 25.54C14.1375 25.54 12.5735 24.324 11.9191 23.4896C11.5375 23.0024 11.6231 22.2984 12.1103 21.9168C12.5951 21.5376 13.2943 21.62 13.6775 22.1016C13.8327 22.2928 15.2375 23.9264 17.4399 23.0464C17.9751 22.8328 18.2191 22.4456 18.1831 22.1728C18.1287 21.756 17.4343 21.2576 16.0071 21.0864C12.4871 20.664 11.9567 18.6688 11.8775 18.0664C11.6999 16.7064 12.5575 15.4024 14.0119 14.8216C16.9543 13.6488 19.1015 15.2248 19.8879 15.9568C20.3407 16.3776 20.3655 17.0872 19.9439 17.54C19.5215 17.992 18.8143 18.0176 18.3607 17.596C17.6415 16.9256 16.4463 16.2624 14.8415 16.9032C14.3063 17.1168 14.0623 17.504 14.0983 17.7768C14.1527 18.1936 14.8463 18.692 16.2735 18.8632C19.7935 19.2856 20.3239 21.2808 20.4031 21.8824C20.5815 23.2424 19.7231 24.5464 18.2695 25.1272C17.5367 25.4192 16.8391 25.5408 16.1911 25.5408L16.1919 25.54Z" fill="#FFF3CC"/>
<path d="M16.1415 16.6432C15.5231 16.6432 15.0215 16.1424 15.0215 15.524V13.9272C15.0215 13.3088 15.5231 12.808 16.1415 12.808C16.7599 12.808 17.2615 13.3088 17.2615 13.9272V15.524C17.2615 16.1424 16.7599 16.6432 16.1415 16.6432Z" fill="#FFF3CC"/>
<path d="M16.1415 27.1416C15.5231 27.1416 15.0215 26.6408 15.0215 26.0224V24.4256C15.0215 23.8072 15.5231 23.3064 16.1415 23.3064C16.7599 23.3064 17.2615 23.8072 17.2615 24.4256V26.0224C17.2615 26.6408 16.7599 27.1416 16.1415 27.1416Z" fill="#FFF3CC"/>
</g>
<defs>
<clipPath id="clip0_545_5154">
<rect width="32" height="32" fill="white"/>
</clipPath>
</defs>
</svg>
