<svg width="56" height="56" viewBox="0 0 56 56" fill="none" xmlns="http://www.w3.org/2000/svg">
<g clip-path="url(#clip0_49_2140)">
<path d="M24.143 30.6348L19.4544 36.1242L19.3214 36.2796L23.3982 41.3994L23.429 41.4386L27.5856 38.7506C28.525 38.143 29.7038 38.0324 30.7398 38.4538L35.7882 40.6868L39.2924 35.0938L33.9402 31.0394L24.143 30.6348Z" fill="#3E5AF4"/>
<path d="M31.5476 18.935C30.8196 17.4916 31.4006 15.7332 32.8426 15.0052C33.7316 14.5558 34.7396 14.6076 35.553 15.0486C35.399 14.8806 35.2394 14.7168 35.0504 14.5712C34.58 14.2128 33.9962 13.9384 33.2794 13.811C32.5332 13.678 31.9242 13.6514 31.3936 13.6962C30.2708 13.79 29.5372 14.2352 28.8694 14.8806C28.7616 14.9842 28.6552 15.0892 28.5488 15.2026C27.6598 16.1504 27.0942 17.3558 26.8128 18.6256L26.2752 21.049L24.1458 30.6362L33.943 31.0408C33.943 31.0408 34.4722 28.6342 35.0672 25.9098L31.5504 18.9364L31.5476 18.935Z" fill="#93C9FF"/>
<path d="M19.4544 36.1242L19.2038 36.358C18.9434 36.6016 18.5444 36.6086 18.2756 36.3762L15.4728 33.943L10.9144 38.6344L10.8528 38.6484L13.9608 41.3476C15.3356 42.5418 17.0338 43.1354 18.7306 43.1354C20.3952 43.1354 22.0458 42.539 23.3982 41.3994L19.3214 36.2796L19.4544 36.1242Z" fill="#FFCCA8"/>
<path d="M41.0619 4.914C41.0619 4.9 41.0479 4.886 41.0339 4.872L36.8339 7.42C36.4279 6.398 35.3779 5.894 34.3979 6.314C33.3479 6.762 32.7599 8.078 33.1099 9.254C33.2499 9.758 33.5439 10.136 33.9079 10.402L32.0039 12.726L31.9899 12.74C31.9759 12.726 31.9619 12.712 31.9619 12.712L31.3879 13.692C31.9199 13.65 32.5359 13.678 33.2779 13.804C33.9919 13.944 34.5799 14.21 35.0559 14.574L35.3359 14.084C36.5539 14.182 37.8279 13.93 38.9619 13.258C41.8459 11.536 42.7839 7.798 41.0619 4.914ZM40.6979 8.848C40.6139 9.366 40.3059 9.744 40.0119 9.702C39.7179 9.646 39.5499 9.184 39.6339 8.666C39.7179 8.162 40.0259 7.77 40.3199 7.826C40.6139 7.882 40.7819 8.33 40.6979 8.848Z" fill="#FFCCA8"/>
<path d="M36.302 41.062C36.785 41.4148 37.0776 41.9832 37.0804 42.5838L37.1154 47.523H43.6982L43.6632 42.5376C43.645 39.8636 42.3444 37.324 40.1842 35.7476L39.2924 35.0952L35.7882 40.6882L36.3006 41.0634L36.302 41.062Z" fill="#FFCCA8"/>
<path d="M28.868 14.882C28.756 14.98 28.658 15.092 28.546 15.204C27.664 16.156 27.09 17.36 26.81 18.62L26.278 21.042L23.366 21.364C22.988 21.406 22.652 21.616 22.442 21.924L21.014 24.108C21.35 25.228 21.14 26.502 20.342 27.482C19.068 29.05 16.758 29.274 15.204 28C13.636 26.726 13.412 24.43 14.686 22.862C14.84 22.68 15.008 22.512 15.19 22.358C15.246 22.246 15.288 22.148 15.358 22.036L17.57 18.704C18.746 16.926 20.622 15.778 22.736 15.54L28.868 14.882Z" fill="#FFCCA8"/>
<path d="M51.366 23.436C51.366 25.06 50.302 26.418 48.846 26.894L43.792 29.624C42.91 30.1 41.944 30.352 40.978 30.352C40.39 30.352 39.802 30.254 39.214 30.086C37.688 29.61 36.428 28.56 35.686 27.132L35.07 25.914L31.542 18.928C30.814 17.486 31.402 15.736 32.844 15.008C33.726 14.56 34.734 14.602 35.56 15.05C36.064 15.33 36.498 15.75 36.778 16.296L40.894 24.472C40.894 24.472 40.908 24.472 40.936 24.486C40.978 24.5 41.006 24.486 41.02 24.472L44.128 22.792C44.422 21.084 45.92 19.782 47.712 19.782C49.728 19.782 51.366 21.42 51.366 23.436Z" fill="#FFCCA8"/>
<path d="M37.1056 47.523V53.1972C37.1056 53.5262 37.3716 53.7922 37.7006 53.7922H48.0508C48.3798 53.7922 48.6458 53.5262 48.6458 53.1972V52.4468C48.6458 51.3324 48.0774 50.295 47.138 49.6958L43.736 47.523H37.1056Z" fill="#4E5968"/>
<path d="M15.4742 33.943L15.5358 33.8786L11.466 29.9236C11.2308 29.694 10.8528 29.6996 10.6246 29.9362L3.41041 37.359C3.18081 37.5942 3.18641 37.9722 3.42301 38.2004L3.96201 38.724C4.76141 39.501 5.90101 39.816 6.98601 39.5598L10.8528 38.6484L10.9144 38.6344L15.4728 33.943H15.4742Z" fill="#4E5968"/>
<path d="M41.034 4.872L36.834 7.42C36.428 6.398 35.378 5.894 34.398 6.314C33.348 6.762 32.76 8.078 33.11 9.254C33.25 9.758 33.544 10.136 33.908 10.402L32.004 12.726L31.99 12.74C31.976 12.726 31.962 12.712 31.962 12.712C31.752 12.53 31.556 12.348 31.374 12.152C31.346 12.124 31.318 12.082 31.276 12.04C31.066 11.802 30.884 11.536 30.702 11.27C30.66 11.2 30.618 11.116 30.562 11.046C30.394 10.738 30.24 10.416 30.128 10.094C30.1 10.01 30.072 9.94 30.058 9.856C29.974 9.59 29.904 9.324 29.862 9.044C29.848 9.016 29.834 8.988 29.834 8.96C29.022 9.73 27.44 11.018 25.074 11.928C22.54 12.894 19.068 11.984 18.13 10.766C17.906 10.472 18.158 10.052 18.494 10.094C20.902 10.388 21.476 8.904 24.248 7.616C26.474 6.58 28.672 7.35 29.764 7.896V7.742C29.778 7.672 29.778 7.602 29.792 7.532C29.806 7.364 29.806 7.182 29.848 7.014C29.862 6.93 29.89 6.86 29.904 6.79C29.946 6.566 30.016 6.356 30.086 6.146C30.142 5.978 30.184 5.824 30.254 5.656C30.352 5.446 30.464 5.236 30.576 5.04C30.646 4.9 30.716 4.774 30.8 4.648C30.954 4.438 31.122 4.228 31.29 4.032C31.374 3.934 31.444 3.85 31.542 3.766C31.724 3.57 31.934 3.388 32.144 3.234C32.256 3.15 32.354 3.08 32.452 2.996C32.55 2.94 32.634 2.856 32.732 2.8C32.858 2.73 32.998 2.674 33.138 2.604C33.264 2.548 33.39 2.492 33.53 2.436C33.754 2.338 33.992 2.254 34.23 2.184C34.37 2.142 34.524 2.114 34.678 2.072C34.902 2.03 35.126 2.002 35.364 1.988C35.532 1.974 35.714 1.96 35.882 1.96C36.106 1.96 36.33 1.988 36.54 2.002C36.652 2.016 36.75 2.016 36.862 2.03C36.932 2.044 37.002 2.072 37.072 2.086C37.324 2.142 37.562 2.212 37.786 2.296C37.954 2.352 38.108 2.394 38.262 2.464C38.5 2.562 38.724 2.702 38.948 2.828C39.074 2.912 39.214 2.968 39.326 3.052C39.564 3.22 39.774 3.416 39.984 3.612C40.082 3.696 40.194 3.78 40.278 3.878C40.488 4.102 40.67 4.354 40.838 4.606C40.908 4.704 40.978 4.774 41.034 4.872Z" fill="#333333"/>
<path d="M40.0078 9.7006C40.3018 9.751 40.6112 9.3716 40.6994 8.8536C40.7876 8.3356 40.621 7.8764 40.327 7.826C40.033 7.7756 39.7236 8.155 39.6354 8.673C39.5472 9.191 39.7138 9.6516 40.0078 9.7006Z" fill="black"/>
</g>
<defs>
<clipPath id="clip0_49_2140">
<rect width="56" height="56" fill="white"/>
</clipPath>
</defs>
</svg>
