<svg width="80" height="80" viewBox="0 0 80 80" fill="none" xmlns="http://www.w3.org/2000/svg">
<g clip-path="url(#clip0_538_4206)">
<path d="M40.6405 33.532L75.4985 13.358C60.0225 2.658 39.0745 14.782 40.6405 33.532Z" fill="#FFCD00"/>
<path d="M62.6136 31.2936C72.4325 25.6368 78.6923 18.1004 76.5953 14.4605C74.4983 10.8207 64.8387 12.4558 55.0198 18.1126C45.201 23.7694 38.9411 31.3058 41.0381 34.9457C43.1351 38.5855 52.7948 36.9504 62.6136 31.2936Z" fill="#FFAD00"/>
<path d="M39.36 33.532L4.50195 13.36C19.978 2.66 40.926 14.782 39.36 33.532Z" fill="#FFCD00"/>
<path d="M38.9615 34.9441C41.0585 31.3043 34.7987 23.7678 24.9798 18.111C15.161 12.4542 5.5013 10.8191 3.40433 14.459C1.30735 18.0988 7.56717 25.6352 17.386 31.292C27.2049 36.9489 36.8645 38.5839 38.9615 34.9441Z" fill="#FFAD00"/>
<path d="M72.1421 54.434C74.0861 54.434 75.6621 52.858 75.6621 50.914C75.6621 48.97 74.0861 47.394 72.1421 47.394C70.198 47.394 68.6221 48.97 68.6221 50.914C68.6221 52.858 70.198 54.434 72.1421 54.434Z" fill="#EDCCF8"/>
<path d="M72.1416 48.894C73.2571 48.894 74.1619 49.7981 74.1621 50.9135C74.1621 52.0291 73.2572 52.934 72.1416 52.934C71.0262 52.9338 70.1221 52.029 70.1221 50.9135C70.1223 49.7983 71.0264 48.8942 72.1416 48.894Z" stroke="white" stroke-opacity="0.5" stroke-width="3"/>
<path d="M61.6661 53.05C61.2701 53.05 60.8701 52.958 60.4941 52.762C55.9881 50.42 52.3081 46.85 49.8521 42.44C49.1681 41.212 49.6101 39.662 50.8381 38.978C52.0641 38.296 53.6141 38.734 54.3001 39.964C56.2681 43.502 59.2221 46.364 62.8421 48.246C64.0901 48.894 64.5741 50.43 63.9261 51.678C63.4721 52.55 62.5861 53.05 61.6661 53.05Z" fill="#B44BD7"/>
<path d="M51.5674 40.2875C52.0395 40.0253 52.6294 40.168 52.9336 40.6039L52.9902 40.6947C55.1026 44.4915 58.2728 47.5606 62.1504 49.5765L62.1514 49.5775C62.6619 49.8429 62.8619 50.4721 62.5947 50.9867C62.408 51.3439 62.0465 51.5502 61.666 51.5502C61.5051 51.5501 61.3438 51.5134 61.1875 51.432L61.1855 51.431C56.9389 49.2237 53.4753 45.8619 51.1631 41.7103H51.1621C50.8818 41.207 51.0623 40.5689 51.5674 40.2875Z" stroke="white" stroke-opacity="0.5" stroke-width="3"/>
<path d="M22.2796 60.128C21.5156 60.128 20.7576 59.786 20.2576 59.13C19.4036 58.014 19.6156 56.416 20.7296 55.562C24.8736 52.388 27.9616 48.12 29.6556 43.222C30.1156 41.892 31.5696 41.19 32.8936 41.648C34.2216 42.108 34.9256 43.558 34.4676 44.886C32.4436 50.732 28.7636 55.82 23.8256 59.604C23.3636 59.958 22.8196 60.128 22.2796 60.128Z" fill="#EF4452"/>
<path d="M31.0732 43.7121C31.2618 43.1674 31.8596 42.8783 32.4023 43.0656C32.9471 43.2543 33.2374 43.8496 33.0498 44.3957C31.1226 49.9619 27.6192 54.8069 22.9131 58.4133C22.7234 58.5586 22.5029 58.6281 22.2793 58.6281C21.9595 58.628 21.6522 58.4859 21.4502 58.2209L21.4492 58.2189L21.3877 58.1301C21.1101 57.6788 21.2142 57.0813 21.6416 56.7531C26.0172 53.4017 29.2823 48.8904 31.0732 43.7121Z" stroke="white" stroke-opacity="0.5" stroke-width="3"/>
<path d="M10.7023 48.292C9.53428 48.292 8.48228 47.484 8.21828 46.296C7.91628 44.924 8.78228 43.564 10.1543 43.262C11.8163 42.894 13.4463 42.366 15.0043 41.692C19.8643 39.586 23.9443 36.106 26.8023 31.624C27.5583 30.438 29.1303 30.092 30.3163 30.848C31.5003 31.604 31.8483 33.178 31.0923 34.362C27.6843 39.702 22.8203 43.852 17.0263 46.362C15.1723 47.166 13.2303 47.794 11.2523 48.232C11.0663 48.272 10.8843 48.292 10.7023 48.292Z" fill="#7896FF"/>
<path d="M28.0674 32.4302C28.3769 31.9448 29.0206 31.8011 29.5098 32.1128C29.9956 32.4236 30.1377 33.0703 29.8281 33.5552C26.6819 38.485 22.2364 42.3473 16.9443 44.7573L16.4297 44.9858C14.667 45.7502 12.819 46.3477 10.9365 46.7651C10.8484 46.784 10.7722 46.7925 10.7021 46.7925C10.2528 46.7924 9.84552 46.4985 9.70703 46.06L9.68262 45.9702C9.56019 45.4055 9.91777 44.8501 10.4766 44.727L10.4785 44.7261C12.2335 44.3375 13.9543 43.7806 15.5996 43.0688L15.6006 43.0679C20.7359 40.8425 25.0489 37.1639 28.0674 32.4302Z" stroke="white" stroke-opacity="0.5" stroke-width="3"/>
<path d="M47.1043 67.812C46.3403 67.812 45.5863 67.47 45.0843 66.818C39.9383 60.122 37.7103 51.824 38.8143 43.456C38.9983 42.064 40.2743 41.092 41.6703 41.266C43.0643 41.45 44.0443 42.728 43.8603 44.122C42.9343 51.14 44.8023 58.1 49.1183 63.716C49.9743 64.83 49.7663 66.428 48.6523 67.284C48.1903 67.64 47.6443 67.812 47.1043 67.812Z" fill="#FFAD00"/>
<path d="M41.4844 42.7546C42.0515 42.8351 42.4481 43.3564 42.373 43.9255C41.3949 51.3386 43.3704 58.6981 47.9287 64.6296C48.2808 65.0878 48.1943 65.7441 47.7383 66.0945L47.7363 66.0955C47.5462 66.2419 47.3252 66.3122 47.1045 66.3123C46.8265 66.3123 46.556 66.2045 46.3545 65.9978L46.2725 65.9031C41.3696 59.5228 39.25 51.6243 40.3018 43.6521C40.3717 43.125 40.8311 42.7322 41.375 42.7458L41.4844 42.7546Z" stroke="white" stroke-opacity="0.5" stroke-width="3"/>
<path d="M44.9 31.144L47.4 33.642C47.92 34.162 47.92 35.004 47.4 35.524L44.898 38.02C44.378 38.54 43.534 38.54 43.014 38.02L40.514 35.522C39.994 35.002 39.994 34.16 40.514 33.64L43.016 31.144C43.536 30.624 44.38 30.624 44.9 31.144Z" fill="#EF4452"/>
<path d="M46.2188 34.5821L43.9561 36.8409L41.6943 34.5811L43.957 32.3224L46.2188 34.5821Z" stroke="white" stroke-opacity="0.5" stroke-width="3"/>
<path d="M59.372 63.9067L60.4343 60.6875C60.689 59.9154 60.2697 59.0831 59.4976 58.8284L56.2708 57.7636C55.4987 57.5089 54.6664 57.9282 54.4117 58.7002L53.3494 61.9195C53.0947 62.6915 53.514 63.5239 54.286 63.7786L57.5129 64.8434C58.2849 65.0981 59.1173 64.6788 59.372 63.9067Z" fill="#7896FF"/>
<path d="M57.9563 63.4101L54.7828 62.363L55.8275 59.1969L59.001 60.244L57.9563 63.4101Z" stroke="white" stroke-opacity="0.5" stroke-width="3"/>
<path d="M6.28551 56.258L7.94751 59.466C8.29351 60.134 9.11551 60.394 9.78551 60.048L12.9975 58.388C13.6655 58.042 13.9275 57.222 13.5815 56.554L11.9195 53.346C11.5735 52.678 10.7515 52.418 10.0815 52.764L6.86951 54.424C6.20151 54.77 5.93951 55.59 6.28551 56.258Z" fill="#A8BFFF"/>
<path d="M12.1846 57.1187L9.21582 58.6529L7.68164 55.6919L10.6504 54.1577L12.1846 57.1187Z" stroke="white" stroke-opacity="0.5" stroke-width="3"/>
<path d="M29.1964 70.674C30.7626 70.674 32.0324 69.4043 32.0324 67.838C32.0324 66.2717 30.7626 65.002 29.1964 65.002C27.6301 65.002 26.3604 66.2717 26.3604 67.838C26.3604 69.4043 27.6301 70.674 29.1964 70.674Z" fill="#FFC84D"/>
<path d="M29.1963 66.502C29.9341 66.502 30.5322 67.1001 30.5322 67.8379C30.5322 68.5758 29.9341 69.1739 29.1963 69.1739C28.4585 69.1738 27.8604 68.5758 27.8604 67.8379C27.8604 67.1001 28.4585 66.502 29.1963 66.502Z" stroke="white" stroke-opacity="0.5" stroke-width="3"/>
<path d="M54.8741 31.45C56.4404 31.45 57.7101 30.1803 57.7101 28.614C57.7101 27.0477 56.4404 25.778 54.8741 25.778C53.3078 25.778 52.0381 27.0477 52.0381 28.614C52.0381 30.1803 53.3078 31.45 54.8741 31.45Z" fill="white"/>
<path d="M54.874 27.278C55.6119 27.278 56.2099 27.8761 56.21 28.6139C56.21 29.3518 55.6119 29.9499 54.874 29.9499C54.1362 29.9498 53.5381 29.3518 53.5381 28.6139C53.5381 27.8761 54.1362 27.278 54.874 27.278Z" stroke="white" stroke-opacity="0.5" stroke-width="3"/>
<path d="M21.7318 28.534C23.5588 28.534 25.0398 27.053 25.0398 25.226C25.0398 23.399 23.5588 21.918 21.7318 21.918C19.9049 21.918 18.4238 23.399 18.4238 25.226C18.4238 27.053 19.9049 28.534 21.7318 28.534Z" fill="#FFC84D"/>
<path d="M21.7314 23.418C22.7298 23.418 23.5398 24.2273 23.54 25.2256C23.54 26.2241 22.73 27.0342 21.7314 27.0342C20.7331 27.034 19.9238 26.224 19.9238 25.2256C19.924 24.2274 20.7332 23.4182 21.7314 23.418Z" stroke="white" stroke-opacity="0.5" stroke-width="3"/>
</g>
<defs>
<clipPath id="clip0_538_4206">
<rect width="80" height="80" fill="white"/>
</clipPath>
</defs>
</svg>
