<svg width="56" height="56" viewBox="0 0 56 56" fill="none" xmlns="http://www.w3.org/2000/svg">
<g clip-path="url(#clip0_52_991)">
<path d="M28 52.5C41.531 52.5 52.5 41.531 52.5 28C52.5 14.469 41.531 3.5 28 3.5C14.469 3.5 3.5 14.469 3.5 28C3.5 41.531 14.469 52.5 28 52.5Z" fill="#FFC84D"/>
<path d="M42.2225 32.0474C42.091 32.0768 41.9439 32.0978 41.8095 32.1272C38.9088 35.3262 34.0732 37.1196 28.5838 37.1196C21.343 37.1196 17.1136 35.3164 14.7938 32.0992C14.707 32.0796 14.6104 32.067 14.525 32.0474C13.937 31.9144 13.356 32.3246 13.412 32.8692C14.112 39.7838 20.5394 45.2004 28.3738 45.2004C36.2082 45.2004 42.6369 39.7838 43.3356 32.8692C43.3902 32.3232 42.8105 31.9144 42.2225 32.0474Z" fill="#FF6D00"/>
<path d="M28.5839 37.1196C34.0733 37.1196 38.9089 35.3262 41.8097 32.1272C37.8631 32.984 33.2823 33.4866 28.3739 33.4866C23.4081 33.4866 18.7727 32.9756 14.7939 32.0992C17.1137 35.3164 21.3431 37.1196 28.5839 37.1196Z" fill="white"/>
<path d="M24.0252 27.9734L20.0436 26.7512C19.7692 26.6672 19.471 26.7232 19.2456 26.901L15.9822 29.4882C15.4152 29.9376 14.5808 29.5414 14.5682 28.819L14.4996 24.6554C14.4954 24.3684 14.3498 24.1024 14.1104 23.9428L10.6412 21.6384C10.0392 21.238 10.1568 20.321 10.8414 20.0872L14.781 18.7362C15.0526 18.6424 15.2612 18.4226 15.3382 18.1454L16.4582 14.1344C16.6528 13.4386 17.5614 13.2664 17.9954 13.8446L20.4986 17.1738C20.6708 17.4034 20.9452 17.5336 21.2322 17.521L25.393 17.346C26.1154 17.3152 26.5592 18.1272 26.1434 18.718L23.7508 22.127C23.5856 22.3622 23.5478 22.6632 23.6472 22.932L25.099 26.8352C25.351 27.5128 24.7168 28.1848 24.0252 27.9734Z" fill="#FFF3B8"/>
<path d="M31.9743 27.9734L35.9559 26.7512C36.2303 26.6672 36.5285 26.7232 36.7539 26.901L40.0173 29.4882C40.5843 29.9376 41.4187 29.5414 41.4313 28.819L41.4999 24.6554C41.5041 24.3684 41.6497 24.1024 41.8891 23.9428L45.3583 21.6384C45.9603 21.238 45.8427 20.321 45.1581 20.0872L41.2185 18.7362C40.9469 18.6424 40.7383 18.4226 40.6613 18.1454L39.5413 14.1344C39.3467 13.4386 38.4381 13.2664 38.0041 13.8446L35.5009 17.1738C35.3287 17.4034 35.0543 17.5336 34.7673 17.521L30.6065 17.346C29.8841 17.3152 29.4403 18.1272 29.8561 18.718L32.2487 22.127C32.4139 22.3622 32.4517 22.6632 32.3523 22.932L30.9005 26.8352C30.6485 27.5128 31.2827 28.1848 31.9743 27.9734Z" fill="#FFF3B8"/>
</g>
<defs>
<clipPath id="clip0_52_991">
<rect width="56" height="56" fill="white"/>
</clipPath>
</defs>
</svg>
