<svg width="108" height="59" viewBox="0 0 108 59" fill="none" xmlns="http://www.w3.org/2000/svg">
<path d="M13.7735 46.76C13.7735 47.8267 14.2855 48.744 15.3095 49.512C16.3335 50.28 17.8695 50.8347 19.9175 51.176C22.7335 51.56 25.0802 51.752 26.9575 51.752C28.9202 51.752 31.2668 51.56 33.9975 51.176C36.0455 50.8347 37.5815 50.28 38.6055 49.512C39.6295 48.744 40.1415 47.8267 40.1415 46.76V46.248C40.1415 45.0533 39.6295 44.0507 38.6055 43.24C37.6242 42.3867 36.3015 41.96 34.6375 41.96H19.2775C17.6135 41.96 16.2695 42.3867 15.2455 43.24C14.2642 44.0507 13.7735 45.0533 13.7735 46.248V46.76ZM6.0935 46.248C6.0935 44.2 6.64817 42.3227 7.7575 40.616C8.9095 38.8667 10.4882 37.48 12.4935 36.456C14.4988 35.432 16.7602 34.92 19.2775 34.92H34.6375C37.1548 34.92 39.4162 35.432 41.4215 36.456C43.4268 37.48 44.9842 38.8667 46.0935 40.616C47.2455 42.3227 47.8215 44.2 47.8215 46.248V46.76C47.8215 49.7893 46.6482 52.2853 44.3015 54.248C41.9548 56.2533 38.9468 57.5333 35.2775 58.088C32.2908 58.5147 29.5175 58.728 26.9575 58.728C24.4402 58.728 21.6668 58.5147 18.6375 58.088C14.9682 57.5333 11.9602 56.2533 9.6135 54.248C7.26683 52.2853 6.0935 49.7893 6.0935 46.76V46.248ZM46.9255 0.359997V13.544H53.0695V21.224H46.9255V33.768H39.2455V0.359997H46.9255ZM3.9815 2.024H32.5895C31.5655 7.69867 30.2855 12.52 28.7495 16.488C31.8642 18.1947 33.4215 20.968 33.4215 24.808C33.4215 27.368 32.8028 29.9707 31.5655 32.616H22.7975C23.7362 31.1653 24.4615 29.8853 24.9735 28.776C25.5282 27.624 25.8055 26.5573 25.8055 25.576C25.8055 24.808 25.5922 24.1467 25.1655 23.592C21.4535 29.352 16.6108 32.488 10.6375 33L9.4855 33.064C7.5655 33.064 5.88017 32.7013 4.4295 31.976C2.97883 31.2507 1.8695 30.2907 1.1015 29.096C0.376167 27.8587 0.0135 26.536 0.0135 25.128C0.0135 23.5493 0.482833 22.0347 1.4215 20.584C2.40283 19.1333 3.89617 17.896 5.9015 16.872C7.9495 15.8053 10.4882 15.1013 13.5175 14.76C15.7362 14.5467 17.5282 14.44 18.8935 14.44C19.5762 14.44 20.4722 14.4827 21.5815 14.568C22.2642 12.8613 22.8615 11.0267 23.3735 9.064H3.9815V2.024ZM9.4215 25.96C12.4508 25.96 15.1815 24.488 17.6135 21.544L14.2855 21.8C12.4082 22.0133 10.8295 22.4827 9.5495 23.208C8.2695 23.8907 7.6295 24.5307 7.6295 25.128C7.6295 25.6827 8.22683 25.96 9.4215 25.96ZM69.092 13.224C69.092 14.2907 70.3933 15.1227 72.996 15.72C75.5987 16.2747 78.6707 16.552 82.212 16.552C83.492 16.552 84.452 16.5307 85.092 16.488C88.292 16.3173 90.6387 15.9547 92.132 15.4C93.668 14.8027 94.564 14.0133 94.82 13.032C91.9187 12.4347 88.804 11.944 85.476 11.56C82.1907 11.1333 79.268 10.92 76.708 10.92C74.3613 10.92 72.5053 11.112 71.14 11.496C69.7747 11.8373 69.092 12.4133 69.092 13.224ZM108.004 33H56.036V25.96H78.5V23.528C73.4653 23.2293 69.348 22.2693 66.148 20.648C62.9907 19.0267 61.412 16.552 61.412 13.224V0.103996H69.092V4.84C71.4387 4.2 74.34 3.88 77.796 3.88C83.0013 3.88 88.7187 4.52 94.948 5.8V0.679996H102.628V12.264C102.628 19.0907 96.932 22.8453 85.54 23.528V25.96H108.004V33ZM62.052 35.688H101.988V58.6H73.252C70.18 58.6 67.7267 57.8107 65.892 56.232C64.1 54.696 63.204 52.4987 63.204 49.64C63.204 48.872 63.268 48.0827 63.396 47.272C63.8653 45.608 64.3987 44.0933 64.996 42.728H62.052V35.688ZM70.82 49.96C70.82 50.6 70.9907 51.0267 71.332 51.24C71.716 51.4533 72.356 51.56 73.252 51.56H94.308V42.728H73.316C72.2493 44.8187 71.46 46.7813 70.948 48.616L70.82 49.96Z" fill="#ACCE58"/>
</svg>
