<svg width="40" height="40" viewBox="0 0 40 40" fill="none" xmlns="http://www.w3.org/2000/svg">
<g clip-path="url(#clip0_49_2308)">
<path d="M17.8111 29.01H22.1901C23.1681 29.01 23.9611 29.804 23.9611 30.781V36.931H16.0391V30.781C16.0391 29.803 16.8331 29.01 17.8101 29.01H17.8111Z" fill="#6B7683"/>
<path d="M35.116 14.626L21.037 3.43101C20.43 2.94801 19.57 2.94801 18.962 3.43101L4.88498 14.626C4.08998 15.258 3.62598 16.219 3.62598 17.235V32.932C3.62598 35.141 5.41698 36.932 7.62598 36.932H16.667V30.677C16.667 29.757 17.413 29.01 18.334 29.01H21.667C22.587 29.01 23.334 29.756 23.334 30.677V36.932H32.374C34.583 36.932 36.374 35.141 36.374 32.932V17.235C36.374 16.219 35.912 15.258 35.116 14.626Z" fill="#D0D5DA"/>
<path d="M35.115 14.625L21.037 3.43101C20.43 2.94801 19.57 2.94801 18.963 3.43101L4.884 14.626C4.089 15.258 3.625 16.219 3.625 17.235V22.294L18.962 10.098C19.569 9.61501 20.429 9.61501 21.037 10.098L36.373 22.294V17.235C36.373 16.219 35.909 15.258 35.114 14.625H35.115Z" fill="#007FF2"/>
</g>
<defs>
<clipPath id="clip0_49_2308">
<rect width="40" height="40" fill="white"/>
</clipPath>
</defs>
</svg>
