<svg width="32" height="32" viewBox="0 0 32 32" fill="none" xmlns="http://www.w3.org/2000/svg">
<g clip-path="url(#clip0_545_5174)">
<path d="M13.9816 16.5256H19.9288C20.2328 16.5256 20.5104 16.3528 20.6456 16.0808L26.9024 3.45119C27.1656 2.91919 26.7792 2.29599 26.1856 2.29599H20.2384C19.9344 2.29599 19.6568 2.46879 19.5216 2.74079L13.2648 15.3704C13.0016 15.9024 13.388 16.5256 13.9816 16.5256Z" fill="#D12030"/>
<path d="M18.0196 16.5256H12.0724C11.7684 16.5256 11.4908 16.3528 11.3556 16.0808L5.09875 3.4504C4.83555 2.9184 5.22195 2.2952 5.81555 2.2952H11.7628C12.0668 2.2952 12.3444 2.468 12.4796 2.74L18.7364 15.3696C18.9996 15.9016 18.6132 16.5256 18.0196 16.5256Z" fill="#EF4452"/>
<path d="M17.0867 10.9888L19.2787 15.4312C19.4555 15.7888 19.7963 16.0368 20.1907 16.0936L25.0931 16.8056C26.0867 16.9504 26.4835 18.1712 25.7643 18.872L22.2171 22.3296C21.9315 22.608 21.8011 23.0088 21.8683 23.4024L22.7059 28.2848C22.8755 29.2744 21.8371 30.0296 20.9483 29.5624L16.5635 27.2576C16.2107 27.072 15.7891 27.072 15.4363 27.2576L11.0515 29.5624C10.1627 30.0296 9.12346 29.2752 9.29386 28.2848L10.1315 23.4024C10.1987 23.0096 10.0683 22.608 9.78266 22.3296L6.23546 18.872C5.51626 18.1712 5.91306 16.9496 6.90666 16.8056L11.8091 16.0936C12.2035 16.036 12.5451 15.7888 12.7211 15.4312L14.9131 10.9888C15.3579 10.088 16.6427 10.088 17.0867 10.9888Z" fill="#FFCD00"/>
</g>
<defs>
<clipPath id="clip0_545_5174">
<rect width="32" height="32" fill="white"/>
</clipPath>
</defs>
</svg>
